<svg viewBox="0 0 760 460" xmlns="http://www.w3.org/2000/svg" font-family="'IBM Plex Sans',system-ui,sans-serif" role="img" aria-label="The complete closed-loop platform running its mission. Top: the full loop - a motion-profile setpoint into a summing junction, error to the PID (Kp 0.15, Ki 0.4, Kd 0.01), to valve and platform, position sensor feeding back, with a feedforward path. Middle: the trajectory rises to 500 mm and holds inside a narrow plus-or-minus 1 mm band; at 8 seconds a load disturbance dips it below target and the controller returns it within a second. A verdict panel: reaches height, holds plus or minus 1 mm at 0.01 mm actual, rejects disturbance, stable at 2.7 times margin.">
<defs><marker id="a" viewBox="0 0 10 10" refX="8" refY="5" markerWidth="7" markerHeight="7" orient="auto"><path d="M0,1 L9,5 L0,9 z" fill="#1B3A55"/></marker></defs>
<rect width="760" height="460" rx="16" fill="#F7F9FB"/>
<text x="30" y="34" font-size="20" font-weight="700" fill="#0C2235">The closed-loop platform</text>
<text x="30" y="55" font-size="12.5" fill="#586876">Everything together: reaches the commanded height and holds ±1 mm, rejecting disturbance.</text>
<text x="30" y="92" font-size="10" fill="#586876">profile</text>
<line x1="72" y1="88" x2="92" y2="88" stroke="#1B3A55" stroke-width="1.6" marker-end="url(#a)"/>
<circle cx="104" cy="88" r="12" fill="#fff" stroke="#1B3A55" stroke-width="1.6"/><text x="104" y="92" font-size="12" font-weight="700" fill="#1B3A55" text-anchor="middle">∑</text>
<line x1="116" y1="88" x2="140" y2="88" stroke="#1B3A55" stroke-width="1.6" marker-end="url(#a)"/><text x="128" y="82" font-size="9" fill="#0E7E8C">e</text>
<rect x="142" y="70" width="120" height="36" rx="8" fill="#fff" stroke="#0E7E8C" stroke-width="1.6"/><text x="202.0" y="92.0" font-size="9.5" font-weight="700" fill="#0C2235" text-anchor="middle">PID 0.15/0.4/0.01</text>
<line x1="262" y1="88" x2="286" y2="88" stroke="#1B3A55" stroke-width="1.6" marker-end="url(#a)"/>
<rect x="288" y="70" width="70" height="36" rx="8" fill="#fff" stroke="#1B3A55" stroke-width="1.6"/><text x="323.0" y="92.0" font-size="10.5" font-weight="700" fill="#0C2235" text-anchor="middle">valve</text>
<line x1="358" y1="88" x2="378" y2="88" stroke="#1B3A55" stroke-width="1.6" marker-end="url(#a)"/>
<rect x="380" y="70" width="86" height="36" rx="8" fill="#fff" stroke="#1B3A55" stroke-width="1.6"/><text x="423.0" y="92.0" font-size="10.5" font-weight="700" fill="#0C2235" text-anchor="middle">platform</text>
<line x1="466" y1="88" x2="500" y2="88" stroke="#1B3A55" stroke-width="1.6" marker-end="url(#a)"/><text x="506" y="92" font-size="10" font-weight="700" fill="#1B3A55">x</text>
<circle cx="524" cy="88" r="3" fill="#1B3A55"/>
<path d="M524,88 L524,128 L104,128 L104,102" fill="none" stroke="#0E7E8C" stroke-width="1.6" marker-end="url(#a)"/>
<rect x="360" y="114" width="110" height="28" rx="8" fill="#fff" stroke="#0E7E8C" stroke-width="1.6"/><text x="415.0" y="132.0" font-size="9.5" font-weight="700" fill="#0C2235" text-anchor="middle">position sensor</text>
<path d="M40,88 L40,52 L323,52 L323,68" fill="none" stroke="#DD841A" stroke-width="1.4" stroke-dasharray="4 3" marker-end="url(#a)"/><text x="180" y="48" font-size="8.5" fill="#DD841A">feedforward (profile velocity)</text>
<text x="40" y="174" font-size="10.5" font-weight="700" fill="#0E7E8C">MISSION: rise to 500 mm, hold ±1 mm, reject a load at 8 s</text>
<rect x="40" y="180" width="470" height="180" rx="8" fill="#fff" stroke="#E2E8F0"/>
<rect x="48" y="199.7" width="454" height="14" fill="#E8F3EC"/>
<line x1="48" y1="206.7" x2="502" y2="206.7" stroke="#0B6A3B" stroke-width="0.8" stroke-dasharray="3 2"/><text x="500" y="197.7" font-size="8" fill="#0B6A3B" text-anchor="end">500 mm ±1</text>
<polyline points="48.0,346.0 48.0,346.0 48.0,346.0 48.0,346.0 48.0,346.0 48.0,346.0 48.0,346.0 48.0,346.0 48.0,346.0 48.8,346.0 48.8,346.0 48.8,346.0 48.8,346.0 48.8,346.0 48.9,346.0 48.9,346.0 48.9,346.0 48.9,346.0 48.9,346.0 49.7,346.0 49.7,346.0 49.7,345.9 49.7,345.9 49.7,345.9 49.7,345.9 49.7,345.9 49.7,345.9 49.7,345.9 49.7,345.9 50.5,345.9 50.5,345.9 50.5,345.9 50.5,345.9 50.5,345.9 50.5,345.9 50.5,345.9 50.5,345.9 50.5,345.9 50.5,345.9 51.3,345.8 51.3,345.8 51.3,345.8 51.3,345.8 51.3,345.8 51.3,345.8 51.3,345.8 51.3,345.8 51.3,345.8 51.3,345.8 52.1,345.6 52.1,345.6 52.1,345.6 52.1,345.6 52.1,345.6 52.1,345.6 52.2,345.6 52.2,345.6 52.2,345.6 52.2,345.6 53.0,345.4 53.0,345.4 53.0,345.4 53.0,345.4 53.0,345.4 53.0,345.4 53.0,345.4 53.0,345.4 53.0,345.4 53.0,345.4 53.8,345.2 53.8,345.2 53.8,345.2 53.8,345.2 53.8,345.2 53.8,345.2 53.8,345.2 53.8,345.2 53.8,345.2 53.8,345.2 54.6,345.0 54.6,345.0 54.6,345.0 54.6,345.0 54.6,345.0 54.6,345.0 54.6,345.0 54.6,345.0 54.6,345.0 54.6,345.0 55.4,344.7 55.4,344.7 55.4,344.7 55.4,344.7 55.4,344.7 55.5,344.7 55.5,344.7 55.5,344.7 55.5,344.7 55.5,344.7 56.3,344.4 56.3,344.4 56.3,344.4 56.3,344.4 56.3,344.4 56.3,344.4 56.3,344.4 56.3,344.4 56.3,344.4 56.3,344.4 57.1,344.1 57.1,344.1 57.1,344.1 57.1,344.1 57.1,344.1 57.1,344.1 57.1,344.1 57.1,344.1 57.1,344.1 57.1,344.1 57.9,343.7 57.9,343.7 57.9,343.7 57.9,343.7 57.9,343.7 57.9,343.7 57.9,343.7 57.9,343.7 57.9,343.7 57.9,343.7 58.7,343.3 58.7,343.3 58.7,343.3 58.7,343.3 58.8,343.3 58.8,343.3 58.8,343.3 58.8,343.3 58.8,343.3 58.8,343.3 59.6,342.9 59.6,342.9 59.6,342.9 59.6,342.9 59.6,342.9 59.6,342.9 59.6,342.9 59.6,342.9 59.6,342.9 59.6,342.9 60.4,342.5 60.4,342.5 60.4,342.5 60.4,342.4 60.4,342.4 60.4,342.4 60.4,342.4 60.4,342.4 60.4,342.4 60.4,342.4 61.2,342.0 61.2,342.0 61.2,342.0 61.2,342.0 61.2,342.0 61.2,342.0 61.2,342.0 61.2,342.0 61.2,342.0 61.2,342.0 62.0,341.5 62.0,341.5 62.0,341.5 62.0,341.5 62.1,341.5 62.1,341.5 62.1,341.5 62.1,341.5 62.1,341.5 62.1,341.5 62.9,341.0 62.9,341.0 62.9,341.0 62.9,341.0 62.9,341.0 62.9,341.0 62.9,341.0 62.9,341.0 62.9,341.0 62.9,341.0 63.7,340.6 63.7,340.6 63.7,340.6 63.7,340.6 63.7,340.6 63.7,340.6 63.7,340.5 63.7,340.5 63.7,340.5 63.7,340.5 64.5,340.1 64.5,340.1 64.5,340.1 64.5,340.1 64.5,340.1 64.5,340.1 64.5,340.1 64.5,340.1 64.5,340.1 64.6,340.1 65.3,339.6 65.3,339.6 65.3,339.6 65.4,339.6 65.4,339.6 65.4,339.6 65.4,339.6 65.4,339.6 65.4,339.6 65.4,339.6 66.2,339.1 66.2,339.1 66.2,339.1 66.2,339.1 66.2,339.1 66.2,339.1 66.2,339.1 66.2,339.1 66.2,339.1 66.2,339.1 67.0,338.7 67.0,338.7 67.0,338.7 67.0,338.7 67.0,338.7 67.0,338.7 67.0,338.7 67.0,338.7 67.0,338.6 67.0,338.6 67.8,338.2 67.8,338.2 67.8,338.2 67.8,338.2 67.8,338.2 67.8,338.2 67.8,338.2 67.8,338.2 67.8,338.2 67.9,338.2 68.6,337.7 68.6,337.7 68.6,337.7 68.7,337.7 68.7,337.7 68.7,337.7 68.7,337.7 68.7,337.7 68.7,337.7 68.7,337.7 69.5,337.2 69.5,337.2 69.5,337.2 69.5,337.2 69.5,337.2 69.5,337.2 69.5,337.2 69.5,337.2 69.5,337.2 69.5,337.2 70.3,336.8 70.3,336.8 70.3,336.8 70.3,336.8 70.3,336.8 70.3,336.8 70.3,336.8 70.3,336.8 70.3,336.8 70.3,336.8 71.1,336.3 71.1,336.3 71.1,336.3 71.1,336.3 71.1,336.3 71.1,336.3 71.1,336.3 71.1,336.3 71.1,336.3 71.2,336.3 71.9,335.8 71.9,335.8 72.0,335.8 72.0,335.8 72.0,335.8 72.0,335.8 72.0,335.8 72.0,335.8 72.0,335.8 72.0,335.8 72.8,335.3 72.8,335.3 72.8,335.3 72.8,335.3 72.8,335.3 72.8,335.3 72.8,335.3 72.8,335.3 72.8,335.3 72.8,335.3 73.6,334.9 73.6,334.9 73.6,334.9 73.6,334.9 73.6,334.9 73.6,334.9 73.6,334.9 73.6,334.9 73.6,334.9 73.6,334.9 74.4,334.4 74.4,334.4 74.4,334.4 74.4,334.4 74.4,334.4 74.4,334.4 74.4,334.4 74.4,334.4 74.5,334.4 74.5,334.4 75.2,333.9 75.2,333.9 75.3,333.9 75.3,333.9 75.3,333.9 75.3,333.9 75.3,333.9 75.3,333.9 75.3,333.9 75.3,333.9 76.1,333.5 76.1,333.5 76.1,333.5 76.1,333.4 76.1,333.4 76.1,333.4 76.1,333.4 76.1,333.4 76.1,333.4 76.1,333.4 76.9,333.0 76.9,333.0 76.9,333.0 76.9,333.0 76.9,333.0 76.9,333.0 76.9,333.0 76.9,333.0 76.9,333.0 76.9,333.0 77.7,332.5 77.7,332.5 77.7,332.5 77.7,332.5 77.7,332.5 77.7,332.5 77.7,332.5 77.7,332.5 77.8,332.5 77.8,332.5 78.5,332.0 78.6,332.0 78.6,332.0 78.6,332.0 78.6,332.0 78.6,332.0 78.6,332.0 78.6,332.0 78.6,332.0 78.6,332.0 79.4,331.6 79.4,331.6 79.4,331.6 79.4,331.6 79.4,331.6 79.4,331.5 79.4,331.5 79.4,331.5 79.4,331.5 79.4,331.5 80.2,331.1 80.2,331.1 80.2,331.1 80.2,331.1 80.2,331.1 80.2,331.1 80.2,331.1 80.2,331.1 80.2,331.1 80.2,331.1 81.0,330.6 81.0,330.6 81.0,330.6 81.0,330.6 81.0,330.6 81.0,330.6 81.0,330.6 81.1,330.6 81.1,330.6 81.1,330.6 81.8,330.1 81.9,330.1 81.9,330.1 81.9,330.1 81.9,330.1 81.9,330.1 81.9,330.1 81.9,330.1 81.9,330.1 81.9,330.1 82.7,329.7 82.7,329.7 82.7,329.7 82.7,329.7 82.7,329.7 82.7,329.7 82.7,329.7 82.7,329.7 82.7,329.6 82.7,329.6 83.5,329.2 83.5,329.2 83.5,329.2 83.5,329.2 83.5,329.2 83.5,329.2 83.5,329.2 83.5,329.2 83.5,329.2 83.5,329.2 84.3,328.7 84.3,328.7 84.3,328.7 84.3,328.7 84.3,328.7 84.3,328.7 84.3,328.7 84.4,328.7 84.4,328.7 84.4,328.7 85.1,328.2 85.2,328.2 85.2,328.2 85.2,328.2 85.2,328.2 85.2,328.2 85.2,328.2 85.2,328.2 85.2,328.2 85.2,328.2 86.0,327.8 86.0,327.8 86.0,327.8 86.0,327.8 86.0,327.8 86.0,327.8 86.0,327.8 86.0,327.8 86.0,327.8 86.0,327.8 86.8,327.3 86.8,327.3 86.8,327.3 86.8,327.3 86.8,327.3 86.8,327.3 86.8,327.3 86.8,327.3 86.8,327.3 86.8,327.3 87.6,326.8 87.6,326.8 87.6,326.8 87.6,326.8 87.6,326.8 87.6,326.8 87.7,326.8 87.7,326.8 87.7,326.8 87.7,326.8 88.5,326.4 88.5,326.3 88.5,326.3 88.5,326.3 88.5,326.3 88.5,326.3 88.5,326.3 88.5,326.3 88.5,326.3 88.5,326.3 89.3,325.9 89.3,325.9 89.3,325.9 89.3,325.9 89.3,325.9 89.3,325.9 89.3,325.9 89.3,325.9 89.3,325.9 89.3,325.9 90.1,325.4 90.1,325.4 90.1,325.4 90.1,325.4 90.1,325.4 90.1,325.4 90.1,325.4 90.1,325.4 90.1,325.4 90.1,325.4 90.9,324.9 90.9,324.9 90.9,324.9 90.9,324.9 90.9,324.9 90.9,324.9 91.0,324.9 91.0,324.9 91.0,324.9 91.0,324.9 91.8,324.5 91.8,324.5 91.8,324.5 91.8,324.5 91.8,324.4 91.8,324.4 91.8,324.4 91.8,324.4 91.8,324.4 91.8,324.4 92.6,324.0 92.6,324.0 92.6,324.0 92.6,324.0 92.6,324.0 92.6,324.0 92.6,324.0 92.6,324.0 92.6,324.0 92.6,324.0 93.4,323.5 93.4,323.5 93.4,323.5 93.4,323.5 93.4,323.5 93.4,323.5 93.4,323.5 93.4,323.5 93.4,323.5 93.4,323.5 94.2,323.0 94.2,323.0 94.2,323.0 94.2,323.0 94.2,323.0 94.3,323.0 94.3,323.0 94.3,323.0 94.3,323.0 94.3,323.0 95.1,322.6 95.1,322.6 95.1,322.6 95.1,322.6 95.1,322.6 95.1,322.6 95.1,322.5 95.1,322.5 95.1,322.5 95.1,322.5 95.9,322.1 95.9,322.1 95.9,322.1 95.9,322.1 95.9,322.1 95.9,322.1 95.9,322.1 95.9,322.1 95.9,322.1 95.9,322.1 96.7,321.6 96.7,321.6 96.7,321.6 96.7,321.6 96.7,321.6 96.7,321.6 96.7,321.6 96.7,321.6 96.7,321.6 96.7,321.6 97.5,321.1 97.5,321.1 97.5,321.1 97.5,321.1 97.5,321.1 97.6,321.1 97.6,321.1 97.6,321.1 97.6,321.1 97.6,321.1 98.4,320.7 98.4,320.7 98.4,320.7 98.4,320.7 98.4,320.7 98.4,320.7 98.4,320.7 98.4,320.7 98.4,320.6 98.4,320.6 99.2,320.2 99.2,320.2 99.2,320.2 99.2,320.2 99.2,320.2 99.2,320.2 99.2,320.2 99.2,320.2 99.2,320.2 99.2,320.2 100.0,319.7 100.0,319.7 100.0,319.7 100.0,319.7 100.0,319.7 100.0,319.7 100.0,319.7 100.0,319.7 100.0,319.7 100.0,319.7 100.8,319.2 100.8,319.2 100.8,319.2 100.8,319.2 100.8,319.2 100.9,319.2 100.9,319.2 100.9,319.2 100.9,319.2 100.9,319.2 101.7,318.8 101.7,318.8 101.7,318.8 101.7,318.8 101.7,318.8 101.7,318.8 101.7,318.8 101.7,318.8 101.7,318.8 101.7,318.8 102.5,318.3 102.5,318.3 102.5,318.3 102.5,318.3 102.5,318.3 102.5,318.3 102.5,318.3 102.5,318.3 102.5,318.3 102.5,318.3 103.3,317.8 103.3,317.8 103.3,317.8 103.3,317.8 103.3,317.8 103.3,317.8 103.3,317.8 103.3,317.8 103.3,317.8 103.3,317.8 104.1,317.4 104.1,317.4 104.1,317.3 104.1,317.3 104.2,317.3 104.2,317.3 104.2,317.3 104.2,317.3 104.2,317.3 104.2,317.3 105.0,316.9 105.0,316.9 105.0,316.9 105.0,316.9 105.0,316.9 105.0,316.9 105.0,316.9 105.0,316.9 105.0,316.9 105.0,316.9 105.8,316.4 105.8,316.4 105.8,316.4 105.8,316.4 105.8,316.4 105.8,316.4 105.8,316.4 105.8,316.4 105.8,316.4 105.8,316.4 106.6,315.9 106.6,315.9 106.6,315.9 106.6,315.9 106.6,315.9 106.6,315.9 106.6,315.9 106.6,315.9 106.6,315.9 106.6,315.9 107.4,315.5 107.4,315.5 107.4,315.5 107.4,315.5 107.5,315.5 107.5,315.4 107.5,315.4 107.5,315.4 107.5,315.4 107.5,315.4 108.3,315.0 108.3,315.0 108.3,315.0 108.3,315.0 108.3,315.0 108.3,315.0 108.3,315.0 108.3,315.0 108.3,315.0 108.3,315.0 109.1,314.5 109.1,314.5 109.1,314.5 109.1,314.5 109.1,314.5 109.1,314.5 109.1,314.5 109.1,314.5 109.1,314.5 109.1,314.5 109.9,314.0 109.9,314.0 109.9,314.0 109.9,314.0 109.9,314.0 109.9,314.0 109.9,314.0 109.9,314.0 109.9,314.0 110.0,314.0 110.7,313.6 110.7,313.6 110.7,313.6 110.8,313.6 110.8,313.6 110.8,313.6 110.8,313.6 110.8,313.5 110.8,313.5 110.8,313.5 111.6,313.1 111.6,313.1 111.6,313.1 111.6,313.1 111.6,313.1 111.6,313.1 111.6,313.1 111.6,313.1 111.6,313.1 111.6,313.1 112.4,312.6 112.4,312.6 112.4,312.6 112.4,312.6 112.4,312.6 112.4,312.6 112.4,312.6 112.4,312.6 112.4,312.6 112.4,312.6 113.2,312.1 113.2,312.1 113.2,312.1 113.2,312.1 113.2,312.1 113.2,312.1 113.2,312.1 113.2,312.1 113.2,312.1 113.3,312.1 114.0,311.7 114.0,311.7 114.0,311.7 114.1,311.7 114.1,311.7 114.1,311.7 114.1,311.7 114.1,311.7 114.1,311.7 114.1,311.6 114.9,311.2 114.9,311.2 114.9,311.2 114.9,311.2 114.9,311.2 114.9,311.2 114.9,311.2 114.9,311.2 114.9,311.2 114.9,311.2 115.7,310.7 115.7,310.7 115.7,310.7 115.7,310.7 115.7,310.7 115.7,310.7 115.7,310.7 115.7,310.7 115.7,310.7 115.7,310.7 116.5,310.3 116.5,310.2 116.5,310.2 116.5,310.2 116.5,310.2 116.5,310.2 116.5,310.2 116.5,310.2 116.5,310.2 116.6,310.2 117.3,309.8 117.3,309.8 117.4,309.8 117.4,309.8 117.4,309.8 117.4,309.8 117.4,309.8 117.4,309.8 117.4,309.8 117.4,309.8 118.2,309.3 118.2,309.3 118.2,309.3 118.2,309.3 118.2,309.3 118.2,309.3 118.2,309.3 118.2,309.3 118.2,309.3 118.2,309.3 119.0,308.8 119.0,308.8 119.0,308.8 119.0,308.8 119.0,308.8 119.0,308.8 119.0,308.8 119.0,308.8 119.0,308.8 119.0,308.8 119.8,308.4 119.8,308.4 119.8,308.4 119.8,308.3 119.8,308.3 119.8,308.3 119.8,308.3 119.8,308.3 119.9,308.3 119.9,308.3 120.6,307.9 120.6,307.9 120.7,307.9 120.7,307.9 120.7,307.9 120.7,307.9 120.7,307.9 120.7,307.9 120.7,307.9 120.7,307.9 121.5,307.4 121.5,307.4 121.5,307.4 121.5,307.4 121.5,307.4 121.5,307.4 121.5,307.4 121.5,307.4 121.5,307.4 121.5,307.4 122.3,306.9 122.3,306.9 122.3,306.9 122.3,306.9 122.3,306.9 122.3,306.9 122.3,306.9 122.3,306.9 122.3,306.9 122.3,306.9 123.1,306.5 123.1,306.5 123.1,306.5 123.1,306.5 123.1,306.5 123.1,306.4 123.1,306.4 123.1,306.4 123.2,306.4 123.2,306.4 123.9,306.0 124.0,306.0 124.0,306.0 124.0,306.0 124.0,306.0 124.0,306.0 124.0,306.0 124.0,306.0 124.0,306.0 124.0,306.0 124.8,305.5 124.8,305.5 124.8,305.5 124.8,305.5 124.8,305.5 124.8,305.5 124.8,305.5 124.8,305.5 124.8,305.5 124.8,305.5 125.6,305.0 125.6,305.0 125.6,305.0 125.6,305.0 125.6,305.0 125.6,305.0 125.6,305.0 125.6,305.0 125.6,305.0 125.6,305.0 126.4,304.6 126.4,304.6 126.4,304.6 126.4,304.6 126.4,304.6 126.4,304.6 126.4,304.6 126.5,304.6 126.5,304.5 126.5,304.5 127.2,304.1 127.3,304.1 127.3,304.1 127.3,304.1 127.3,304.1 127.3,304.1 127.3,304.1 127.3,304.1 127.3,304.1 127.3,304.1 128.1,303.6 128.1,303.6 128.1,303.6 128.1,303.6 128.1,303.6 128.1,303.6 128.1,303.6 128.1,303.6 128.1,303.6 128.1,303.6 128.9,303.1 128.9,303.1 128.9,303.1 128.9,303.1 128.9,303.1 128.9,303.1 128.9,303.1 128.9,303.1 128.9,303.1 128.9,303.1 129.7,302.7 129.7,302.7 129.7,302.7 129.7,302.7 129.7,302.7 129.7,302.7 129.7,302.7 129.8,302.7 129.8,302.7 129.8,302.7 130.5,302.2 130.6,302.2 130.6,302.2 130.6,302.2 130.6,302.2 130.6,302.2 130.6,302.2 130.6,302.2 130.6,302.2 130.6,302.2 131.4,301.7 131.4,301.7 131.4,301.7 131.4,301.7 131.4,301.7 131.4,301.7 131.4,301.7 131.4,301.7 131.4,301.7 131.4,301.7 132.2,301.3 132.2,301.3 132.2,301.2 132.2,301.2 132.2,301.2 132.2,301.2 132.2,301.2 132.2,301.2 132.2,301.2 132.2,301.2 133.0,300.8 133.0,300.8 133.0,300.8 133.0,300.8 133.0,300.8 133.0,300.8 133.1,300.8 133.1,300.8 133.1,300.8 133.1,300.8 133.9,300.3 133.9,300.3 133.9,300.3 133.9,300.3 133.9,300.3 133.9,300.3 133.9,300.3 133.9,300.3 133.9,300.3 133.9,300.3 134.7,299.8 134.7,299.8 134.7,299.8 134.7,299.8 134.7,299.8 134.7,299.8 134.7,299.8 134.7,299.8 134.7,299.8 134.7,299.8 135.5,299.4 135.5,299.4 135.5,299.4 135.5,299.4 135.5,299.4 135.5,299.3 135.5,299.3 135.5,299.3 135.5,299.3 135.5,299.3 136.3,298.9 136.3,298.9 136.3,298.9 136.3,298.9 136.3,298.9 136.3,298.9 136.3,298.9 136.4,298.9 136.4,298.9 136.4,298.9 137.1,298.4 137.2,298.4 137.2,298.4 137.2,298.4 137.2,298.4 137.2,298.4 137.2,298.4 137.2,298.4 137.2,298.4 137.2,298.4 138.0,297.9 138.0,297.9 138.0,297.9 138.0,297.9 138.0,297.9 138.0,297.9 138.0,297.9 138.0,297.9 138.0,297.9 138.0,297.9 138.8,297.5 138.8,297.5 138.8,297.5 138.8,297.5 138.8,297.5 138.8,297.5 138.8,297.5 138.8,297.4 138.8,297.4 138.8,297.4 139.6,297.0 139.6,297.0 139.6,297.0 139.6,297.0 139.6,297.0 139.6,297.0 139.7,297.0 139.7,297.0 139.7,297.0 139.7,297.0 140.5,296.5 140.5,296.5 140.5,296.5 140.5,296.5 140.5,296.5 140.5,296.5 140.5,296.5 140.5,296.5 140.5,296.5 140.5,296.5 141.3,296.0 141.3,296.0 141.3,296.0 141.3,296.0 141.3,296.0 141.3,296.0 141.3,296.0 141.3,296.0 141.3,296.0 141.3,296.0 142.1,295.6 142.1,295.6 142.1,295.6 142.1,295.6 142.1,295.6 142.1,295.6 142.1,295.6 142.1,295.6 142.1,295.6 142.1,295.6 142.9,295.1 142.9,295.1 142.9,295.1 142.9,295.1 142.9,295.1 142.9,295.1 143.0,295.1 143.0,295.1 143.0,295.1 143.0,295.1 143.8,294.6 143.8,294.6 143.8,294.6 143.8,294.6 143.8,294.6 143.8,294.6 143.8,294.6 143.8,294.6 143.8,294.6 143.8,294.6 144.6,294.2 144.6,294.1 144.6,294.1 144.6,294.1 144.6,294.1 144.6,294.1 144.6,294.1 144.6,294.1 144.6,294.1 144.6,294.1 145.4,293.7 145.4,293.7 145.4,293.7 145.4,293.7 145.4,293.7 145.4,293.7 145.4,293.7 145.4,293.7 145.4,293.7 145.4,293.7 146.2,293.2 146.2,293.2 146.2,293.2 146.2,293.2 146.2,293.2 146.2,293.2 146.3,293.2 146.3,293.2 146.3,293.2 146.3,293.2 147.1,292.7 147.1,292.7 147.1,292.7 147.1,292.7 147.1,292.7 147.1,292.7 147.1,292.7 147.1,292.7 147.1,292.7 147.1,292.7 147.9,292.3 147.9,292.3 147.9,292.3 147.9,292.2 147.9,292.2 147.9,292.2 147.9,292.2 147.9,292.2 147.9,292.2 147.9,292.2 148.7,291.8 148.7,291.8 148.7,291.8 148.7,291.8 148.7,291.8 148.7,291.8 148.7,291.8 148.7,291.8 148.7,291.8 148.7,291.8 149.5,291.3 149.5,291.3 149.5,291.3 149.5,291.3 149.5,291.3 149.6,291.3 149.6,291.3 149.6,291.3 149.6,291.3 149.6,291.3 150.4,290.8 150.4,290.8 150.4,290.8 150.4,290.8 150.4,290.8 150.4,290.8 150.4,290.8 150.4,290.8 150.4,290.8 150.4,290.8 151.2,290.4 151.2,290.4 151.2,290.4 151.2,290.4 151.2,290.4 151.2,290.4 151.2,290.3 151.2,290.3 151.2,290.3 151.2,290.3 152.0,289.9 152.0,289.9 152.0,289.9 152.0,289.9 152.0,289.9 152.0,289.9 152.0,289.9 152.0,289.9 152.0,289.9 152.0,289.9 152.8,289.4 152.8,289.4 152.8,289.4 152.8,289.4 152.8,289.4 152.9,289.4 152.9,289.4 152.9,289.4 152.9,289.4 152.9,289.4 153.7,288.9 153.7,288.9 153.7,288.9 153.7,288.9 153.7,288.9 153.7,288.9 153.7,288.9 153.7,288.9 153.7,288.9 153.7,288.9 154.5,288.5 154.5,288.5 154.5,288.5 154.5,288.5 154.5,288.5 154.5,288.5 154.5,288.5 154.5,288.5 154.5,288.4 154.5,288.4 155.3,288.0 155.3,288.0 155.3,288.0 155.3,288.0 155.3,288.0 155.3,288.0 155.3,288.0 155.3,288.0 155.3,288.0 155.3,288.0 156.1,287.5 156.1,287.5 156.1,287.5 156.1,287.5 156.2,287.5 156.2,287.5 156.2,287.5 156.2,287.5 156.2,287.5 156.2,287.5 157.0,287.0 157.0,287.0 157.0,287.0 157.0,287.0 157.0,287.0 157.0,287.0 157.0,287.0 157.0,287.0 157.0,287.0 157.0,287.0 157.8,286.6 157.8,286.6 157.8,286.6 157.8,286.6 157.8,286.6 157.8,286.6 157.8,286.6 157.8,286.6 157.8,286.6 157.8,286.6 158.6,286.1 158.6,286.1 158.6,286.1 158.6,286.1 158.6,286.1 158.6,286.1 158.6,286.1 158.6,286.1 158.6,286.1 158.6,286.1 159.4,285.6 159.4,285.6 159.4,285.6 159.4,285.6 159.5,285.6 159.5,285.6 159.5,285.6 159.5,285.6 159.5,285.6 159.5,285.6 160.3,285.2 160.3,285.2 160.3,285.1 160.3,285.1 160.3,285.1 160.3,285.1 160.3,285.1 160.3,285.1 160.3,285.1 160.3,285.1 161.1,284.7 161.1,284.7 161.1,284.7 161.1,284.7 161.1,284.7 161.1,284.7 161.1,284.7 161.1,284.7 161.1,284.7 161.1,284.7 161.9,284.2 161.9,284.2 161.9,284.2 161.9,284.2 161.9,284.2 161.9,284.2 161.9,284.2 161.9,284.2 161.9,284.2 161.9,284.2 162.7,283.7 162.7,283.7 162.7,283.7 162.8,283.7 162.8,283.7 162.8,283.7 162.8,283.7 162.8,283.7 162.8,283.7 162.8,283.7 163.6,283.3 163.6,283.3 163.6,283.3 163.6,283.3 163.6,283.2 163.6,283.2 163.6,283.2 163.6,283.2 163.6,283.2 163.6,283.2 164.4,282.8 164.4,282.8 164.4,282.8 164.4,282.8 164.4,282.8 164.4,282.8 164.4,282.8 164.4,282.8 164.4,282.8 164.4,282.8 165.2,282.3 165.2,282.3 165.2,282.3 165.2,282.3 165.2,282.3 165.2,282.3 165.2,282.3 165.2,282.3 165.2,282.3 165.3,282.3 166.0,281.8 166.0,281.8 166.0,281.8 166.1,281.8 166.1,281.8 166.1,281.8 166.1,281.8 166.1,281.8 166.1,281.8 166.1,281.8 166.9,281.4 166.9,281.4 166.9,281.4 166.9,281.4 166.9,281.4 166.9,281.4 166.9,281.4 166.9,281.3 166.9,281.3 166.9,281.3 167.7,280.9 167.7,280.9 167.7,280.9 167.7,280.9 167.7,280.9 167.7,280.9 167.7,280.9 167.7,280.9 167.7,280.9 167.7,280.9 168.5,280.4 168.5,280.4 168.5,280.4 168.5,280.4 168.5,280.4 168.5,280.4 168.5,280.4 168.5,280.4 168.5,280.4 168.6,280.4 169.3,279.9 169.3,279.9 169.4,279.9 169.4,279.9 169.4,279.9 169.4,279.9 169.4,279.9 169.4,279.9 169.4,279.9 169.4,279.9 170.2,279.5 170.2,279.5 170.2,279.5 170.2,279.5 170.2,279.5 170.2,279.5 170.2,279.5 170.2,279.5 170.2,279.5 170.2,279.4 171.0,279.0 171.0,279.0 171.0,279.0 171.0,279.0 171.0,279.0 171.0,279.0 171.0,279.0 171.0,279.0 171.0,279.0 171.0,279.0 171.8,278.5 171.8,278.5 171.8,278.5 171.8,278.5 171.8,278.5 171.8,278.5 171.8,278.5 171.8,278.5 171.9,278.5 171.9,278.5 172.6,278.0 172.6,278.0 172.7,278.0 172.7,278.0 172.7,278.0 172.7,278.0 172.7,278.0 172.7,278.0 172.7,278.0 172.7,278.0 173.5,277.6 173.5,277.6 173.5,277.6 173.5,277.6 173.5,277.6 173.5,277.6 173.5,277.6 173.5,277.6 173.5,277.6 173.5,277.6 174.3,277.1 174.3,277.1 174.3,277.1 174.3,277.1 174.3,277.1 174.3,277.1 174.3,277.1 174.3,277.1 174.3,277.1 174.3,277.1 175.1,276.6 175.1,276.6 175.1,276.6 175.1,276.6 175.1,276.6 175.1,276.6 175.1,276.6 175.1,276.6 175.2,276.6 175.2,276.6 175.9,276.2 175.9,276.2 176.0,276.2 176.0,276.1 176.0,276.1 176.0,276.1 176.0,276.1 176.0,276.1 176.0,276.1 176.0,276.1 176.8,275.7 176.8,275.7 176.8,275.7 176.8,275.7 176.8,275.7 176.8,275.7 176.8,275.7 176.8,275.7 176.8,275.7 176.8,275.7 177.6,275.2 177.6,275.2 177.6,275.2 177.6,275.2 177.6,275.2 177.6,275.2 177.6,275.2 177.6,275.2 177.6,275.2 177.6,275.2 178.4,274.7 178.4,274.7 178.4,274.7 178.4,274.7 178.4,274.7 178.4,274.7 178.4,274.7 178.5,274.7 178.5,274.7 178.5,274.7 179.2,274.3 179.3,274.3 179.3,274.3 179.3,274.3 179.3,274.3 179.3,274.2 179.3,274.2 179.3,274.2 179.3,274.2 179.3,274.2 180.1,273.8 180.1,273.8 180.1,273.8 180.1,273.8 180.1,273.8 180.1,273.8 180.1,273.8 180.1,273.8 180.1,273.8 180.1,273.8 180.9,273.3 180.9,273.3 180.9,273.3 180.9,273.3 180.9,273.3 180.9,273.3 180.9,273.3 180.9,273.3 180.9,273.3 180.9,273.3 181.7,272.8 181.7,272.8 181.7,272.8 181.7,272.8 181.7,272.8 181.7,272.8 181.7,272.8 181.8,272.8 181.8,272.8 181.8,272.8 182.5,272.4 182.6,272.4 182.6,272.4 182.6,272.4 182.6,272.4 182.6,272.4 182.6,272.4 182.6,272.4 182.6,272.3 182.6,272.3 183.4,271.9 183.4,271.9 183.4,271.9 183.4,271.9 183.4,271.9 183.4,271.9 183.4,271.9 183.4,271.9 183.4,271.9 183.4,271.9 184.2,271.4 184.2,271.4 184.2,271.4 184.2,271.4 184.2,271.4 184.2,271.4 184.2,271.4 184.2,271.4 184.2,271.4 184.2,271.4 185.0,270.9 185.0,270.9 185.0,270.9 185.0,270.9 185.0,270.9 185.0,270.9 185.1,270.9 185.1,270.9 185.1,270.9 185.1,270.9 185.9,270.5 185.9,270.5 185.9,270.5 185.9,270.5 185.9,270.5 185.9,270.5 185.9,270.5 185.9,270.5 185.9,270.5 185.9,270.5 186.7,270.0 186.7,270.0 186.7,270.0 186.7,270.0 186.7,270.0 186.7,270.0 186.7,270.0 186.7,270.0 186.7,270.0 186.7,270.0 187.5,269.5 187.5,269.5 187.5,269.5 187.5,269.5 187.5,269.5 187.5,269.5 187.5,269.5 187.5,269.5 187.5,269.5 187.5,269.5 188.3,269.1 188.3,269.0 188.3,269.0 188.3,269.0 188.3,269.0 188.3,269.0 188.4,269.0 188.4,269.0 188.4,269.0 188.4,269.0 189.2,268.6 189.2,268.6 189.2,268.6 189.2,268.6 189.2,268.6 189.2,268.6 189.2,268.6 189.2,268.6 189.2,268.6 189.2,268.6 190.0,268.1 190.0,268.1 190.0,268.1 190.0,268.1 190.0,268.1 190.0,268.1 190.0,268.1 190.0,268.1 190.0,268.1 190.0,268.1 190.8,267.6 190.8,267.6 190.8,267.6 190.8,267.6 190.8,267.6 190.8,267.6 190.8,267.6 190.8,267.6 190.8,267.6 190.8,267.6 191.6,267.2 191.6,267.2 191.6,267.2 191.6,267.2 191.6,267.1 191.6,267.1 191.7,267.1 191.7,267.1 191.7,267.1 191.7,267.1 192.5,266.7 192.5,266.7 192.5,266.7 192.5,266.7 192.5,266.7 192.5,266.7 192.5,266.7 192.5,266.7 192.5,266.7 192.5,266.7 193.3,266.2 193.3,266.2 193.3,266.2 193.3,266.2 193.3,266.2 193.3,266.2 193.3,266.2 193.3,266.2 193.3,266.2 193.3,266.2 194.1,265.7 194.1,265.7 194.1,265.7 194.1,265.7 194.1,265.7 194.1,265.7 194.1,265.7 194.1,265.7 194.1,265.7 194.1,265.7 194.9,265.3 194.9,265.3 194.9,265.3 194.9,265.3 194.9,265.3 195.0,265.3 195.0,265.2 195.0,265.2 195.0,265.2 195.0,265.2 195.8,264.8 195.8,264.8 195.8,264.8 195.8,264.8 195.8,264.8 195.8,264.8 195.8,264.8 195.8,264.8 195.8,264.8 195.8,264.8 196.6,264.3 196.6,264.3 196.6,264.3 196.6,264.3 196.6,264.3 196.6,264.3 196.6,264.3 196.6,264.3 196.6,264.3 196.6,264.3 197.4,263.8 197.4,263.8 197.4,263.8 197.4,263.8 197.4,263.8 197.4,263.8 197.4,263.8 197.4,263.8 197.4,263.8 197.4,263.8 198.2,263.4 198.2,263.4 198.2,263.4 198.2,263.4 198.2,263.4 198.3,263.4 198.3,263.4 198.3,263.4 198.3,263.4 198.3,263.3 199.1,262.9 199.1,262.9 199.1,262.9 199.1,262.9 199.1,262.9 199.1,262.9 199.1,262.9 199.1,262.9 199.1,262.9 199.1,262.9 199.9,262.4 199.9,262.4 199.9,262.4 199.9,262.4 199.9,262.4 199.9,262.4 199.9,262.4 199.9,262.4 199.9,262.4 199.9,262.4 200.7,261.9 200.7,261.9 200.7,261.9 200.7,261.9 200.7,261.9 200.7,261.9 200.7,261.9 200.7,261.9 200.7,261.9 200.7,261.9 201.5,261.5 201.5,261.5 201.5,261.5 201.5,261.5 201.6,261.5 201.6,261.5 201.6,261.5 201.6,261.5 201.6,261.5 201.6,261.5 202.4,261.0 202.4,261.0 202.4,261.0 202.4,261.0 202.4,261.0 202.4,261.0 202.4,261.0 202.4,261.0 202.4,261.0 202.4,261.0 203.2,260.5 203.2,260.5 203.2,260.5 203.2,260.5 203.2,260.5 203.2,260.5 203.2,260.5 203.2,260.5 203.2,260.5 203.2,260.5 204.0,260.1 204.0,260.1 204.0,260.0 204.0,260.0 204.0,260.0 204.0,260.0 204.0,260.0 204.0,260.0 204.0,260.0 204.0,260.0 204.8,259.6 204.8,259.6 204.8,259.6 204.8,259.6 204.9,259.6 204.9,259.6 204.9,259.6 204.9,259.6 204.9,259.6 204.9,259.6 205.7,259.1 205.7,259.1 205.7,259.1 205.7,259.1 205.7,259.1 205.7,259.1 205.7,259.1 205.7,259.1 205.7,259.1 205.7,259.1 206.5,258.6 206.5,258.6 206.5,258.6 206.5,258.6 206.5,258.6 206.5,258.6 206.5,258.6 206.5,258.6 206.5,258.6 206.5,258.6 207.3,258.2 207.3,258.2 207.3,258.2 207.3,258.2 207.3,258.2 207.3,258.1 207.3,258.1 207.3,258.1 207.3,258.1 207.3,258.1 208.1,257.7 208.1,257.7 208.1,257.7 208.2,257.7 208.2,257.7 208.2,257.7 208.2,257.7 208.2,257.7 208.2,257.7 208.2,257.7 209.0,257.2 209.0,257.2 209.0,257.2 209.0,257.2 209.0,257.2 209.0,257.2 209.0,257.2 209.0,257.2 209.0,257.2 209.0,257.2 209.8,256.7 209.8,256.7 209.8,256.7 209.8,256.7 209.8,256.7 209.8,256.7 209.8,256.7 209.8,256.7 209.8,256.7 209.8,256.7 210.6,256.3 210.6,256.3 210.6,256.3 210.6,256.3 210.6,256.3 210.6,256.3 210.6,256.3 210.6,256.2 210.6,256.2 210.7,256.2 211.4,255.8 211.4,255.8 211.4,255.8 211.5,255.8 211.5,255.8 211.5,255.8 211.5,255.8 211.5,255.8 211.5,255.8 211.5,255.8 212.3,255.3 212.3,255.3 212.3,255.3 212.3,255.3 212.3,255.3 212.3,255.3 212.3,255.3 212.3,255.3 212.3,255.3 212.3,255.3 213.1,254.8 213.1,254.8 213.1,254.8 213.1,254.8 213.1,254.8 213.1,254.8 213.1,254.8 213.1,254.8 213.1,254.8 213.1,254.8 213.9,254.4 213.9,254.4 213.9,254.4 213.9,254.4 213.9,254.4 213.9,254.4 213.9,254.4 213.9,254.4 213.9,254.4 214.0,254.3 214.7,253.9 214.7,253.9 214.8,253.9 214.8,253.9 214.8,253.9 214.8,253.9 214.8,253.9 214.8,253.9 214.8,253.9 214.8,253.9 215.6,253.4 215.6,253.4 215.6,253.4 215.6,253.4 215.6,253.4 215.6,253.4 215.6,253.4 215.6,253.4 215.6,253.4 215.6,253.4 216.4,253.0 216.4,252.9 216.4,252.9 216.4,252.9 216.4,252.9 216.4,252.9 216.4,252.9 216.4,252.9 216.4,252.9 216.4,252.9 217.2,252.5 217.2,252.5 217.2,252.5 217.2,252.5 217.2,252.5 217.2,252.5 217.2,252.5 217.2,252.5 217.3,252.5 217.3,252.5 218.0,252.0 218.0,252.0 218.1,252.0 218.1,252.0 218.1,252.0 218.1,252.0 218.1,252.0 218.1,252.0 218.1,252.0 218.1,252.0 218.9,251.5 218.9,251.5 218.9,251.5 218.9,251.5 218.9,251.5 218.9,251.5 218.9,251.5 218.9,251.5 218.9,251.5 218.9,251.5 219.7,251.1 219.7,251.1 219.7,251.1 219.7,251.0 219.7,251.0 219.7,251.0 219.7,251.0 219.7,251.0 219.7,251.0 219.7,251.0 220.5,250.6 220.5,250.6 220.5,250.6 220.5,250.6 220.5,250.6 220.5,250.6 220.5,250.6 220.5,250.6 220.6,250.6 220.6,250.6 221.3,250.1 221.3,250.1 221.4,250.1 221.4,250.1 221.4,250.1 221.4,250.1 221.4,250.1 221.4,250.1 221.4,250.1 221.4,250.1 222.2,249.6 222.2,249.6 222.2,249.6 222.2,249.6 222.2,249.6 222.2,249.6 222.2,249.6 222.2,249.6 222.2,249.6 222.2,249.6 223.0,249.2 223.0,249.2 223.0,249.2 223.0,249.2 223.0,249.2 223.0,249.2 223.0,249.1 223.0,249.1 223.0,249.1 223.0,249.1 223.8,248.7 223.8,248.7 223.8,248.7 223.8,248.7 223.8,248.7 223.8,248.7 223.8,248.7 223.9,248.7 223.9,248.7 223.9,248.7 224.6,248.2 224.7,248.2 224.7,248.2 224.7,248.2 224.7,248.2 224.7,248.2 224.7,248.2 224.7,248.2 224.7,248.2 224.7,248.2 225.5,247.7 225.5,247.7 225.5,247.7 225.5,247.7 225.5,247.7 225.5,247.7 225.5,247.7 225.5,247.7 225.5,247.7 225.5,247.7 226.3,247.3 226.3,247.3 226.3,247.3 226.3,247.3 226.3,247.3 226.3,247.3 226.3,247.3 226.3,247.3 226.3,247.2 226.3,247.2 227.1,246.8 227.1,246.8 227.1,246.8 227.1,246.8 227.1,246.8 227.1,246.8 227.1,246.8 227.2,246.8 227.2,246.8 227.2,246.8 227.9,246.3 228.0,246.3 228.0,246.3 228.0,246.3 228.0,246.3 228.0,246.3 228.0,246.3 228.0,246.3 228.0,246.3 228.0,246.3 228.8,245.8 228.8,245.8 228.8,245.8 228.8,245.8 228.8,245.8 228.8,245.8 228.8,245.8 228.8,245.8 228.8,245.8 228.8,245.8 229.6,245.4 229.6,245.4 229.6,245.4 229.6,245.4 229.6,245.4 229.6,245.4 229.6,245.4 229.6,245.4 229.6,245.4 229.6,245.4 230.4,244.9 230.4,244.9 230.4,244.9 230.4,244.9 230.4,244.9 230.4,244.9 230.5,244.9 230.5,244.9 230.5,244.9 230.5,244.9 231.3,244.4 231.3,244.4 231.3,244.4 231.3,244.4 231.3,244.4 231.3,244.4 231.3,244.4 231.3,244.4 231.3,244.4 231.3,244.4 232.1,244.0 232.1,244.0 232.1,243.9 232.1,243.9 232.1,243.9 232.1,243.9 232.1,243.9 232.1,243.9 232.1,243.9 232.1,243.9 232.9,243.5 232.9,243.5 232.9,243.5 232.9,243.5 232.9,243.5 232.9,243.5 232.9,243.5 232.9,243.5 232.9,243.5 232.9,243.5 233.7,243.0 233.7,243.0 233.7,243.0 233.7,243.0 233.7,243.0 233.7,243.0 233.8,243.0 233.8,243.0 233.8,243.0 233.8,243.0 234.6,242.5 234.6,242.5 234.6,242.5 234.6,242.5 234.6,242.5 234.6,242.5 234.6,242.5 234.6,242.5 234.6,242.5 234.6,242.5 235.4,242.1 235.4,242.1 235.4,242.1 235.4,242.1 235.4,242.0 235.4,242.0 235.4,242.0 235.4,242.0 235.4,242.0 235.4,242.0 236.2,241.6 236.2,241.6 236.2,241.6 236.2,241.6 236.2,241.6 236.2,241.6 236.2,241.6 236.2,241.6 236.2,241.6 236.2,241.6 237.0,241.1 237.0,241.1 237.0,241.1 237.0,241.1 237.0,241.1 237.0,241.1 237.1,241.1 237.1,241.1 237.1,241.1 237.1,241.1 237.9,240.6 237.9,240.6 237.9,240.6 237.9,240.6 237.9,240.6 237.9,240.6 237.9,240.6 237.9,240.6 237.9,240.6 237.9,240.6 238.7,240.2 238.7,240.2 238.7,240.2 238.7,240.2 238.7,240.2 238.7,240.2 238.7,240.1 238.7,240.1 238.7,240.1 238.7,240.1 239.5,239.7 239.5,239.7 239.5,239.7 239.5,239.7 239.5,239.7 239.5,239.7 239.5,239.7 239.5,239.7 239.5,239.7 239.5,239.7 240.3,239.2 240.3,239.2 240.3,239.2 240.3,239.2 240.3,239.2 240.4,239.2 240.4,239.2 240.4,239.2 240.4,239.2 240.4,239.2 241.2,238.7 241.2,238.7 241.2,238.7 241.2,238.7 241.2,238.7 241.2,238.7 241.2,238.7 241.2,238.7 241.2,238.7 241.2,238.7 242.0,238.3 242.0,238.3 242.0,238.3 242.0,238.3 242.0,238.3 242.0,238.3 242.0,238.3 242.0,238.3 242.0,238.3 242.0,238.2 242.8,237.8 242.8,237.8 242.8,237.8 242.8,237.8 242.8,237.8 242.8,237.8 242.8,237.8 242.8,237.8 242.8,237.8 242.8,237.8 243.6,237.3 243.6,237.3 243.6,237.3 243.6,237.3 243.6,237.3 243.7,237.3 243.7,237.3 243.7,237.3 243.7,237.3 243.7,237.3 244.5,236.8 244.5,236.8 244.5,236.8 244.5,236.8 244.5,236.8 244.5,236.8 244.5,236.8 244.5,236.8 244.5,236.8 244.5,236.8 245.3,236.4 245.3,236.4 245.3,236.4 245.3,236.4 245.3,236.4 245.3,236.4 245.3,236.4 245.3,236.4 245.3,236.4 245.3,236.4 246.1,235.9 246.1,235.9 246.1,235.9 246.1,235.9 246.1,235.9 246.1,235.9 246.1,235.9 246.1,235.9 246.1,235.9 246.1,235.9 246.9,235.4 246.9,235.4 246.9,235.4 246.9,235.4 247.0,235.4 247.0,235.4 247.0,235.4 247.0,235.4 247.0,235.4 247.0,235.4 247.8,235.0 247.8,235.0 247.8,235.0 247.8,234.9 247.8,234.9 247.8,234.9 247.8,234.9 247.8,234.9 247.8,234.9 247.8,234.9 248.6,234.5 248.6,234.5 248.6,234.5 248.6,234.5 248.6,234.5 248.6,234.5 248.6,234.5 248.6,234.5 248.6,234.5 248.6,234.5 249.4,234.0 249.4,234.0 249.4,234.0 249.4,234.0 249.4,234.0 249.4,234.0 249.4,234.0 249.4,234.0 249.4,234.0 249.4,234.0 250.2,233.5 250.2,233.5 250.2,233.5 250.2,233.5 250.3,233.5 250.3,233.5 250.3,233.5 250.3,233.5 250.3,233.5 250.3,233.5 251.1,233.1 251.1,233.1 251.1,233.1 251.1,233.1 251.1,233.1 251.1,233.0 251.1,233.0 251.1,233.0 251.1,233.0 251.1,233.0 251.9,232.6 251.9,232.6 251.9,232.6 251.9,232.6 251.9,232.6 251.9,232.6 251.9,232.6 251.9,232.6 251.9,232.6 251.9,232.6 252.7,232.1 252.7,232.1 252.7,232.1 252.7,232.1 252.7,232.1 252.7,232.1 252.7,232.1 252.7,232.1 252.7,232.1 252.7,232.1 253.5,231.6 253.5,231.6 253.5,231.6 253.6,231.6 253.6,231.6 253.6,231.6 253.6,231.6 253.6,231.6 253.6,231.6 253.6,231.6 254.4,231.2 254.4,231.2 254.4,231.2 254.4,231.2 254.4,231.2 254.4,231.2 254.4,231.2 254.4,231.1 254.4,231.1 254.4,231.1 255.2,230.7 255.2,230.7 255.2,230.7 255.2,230.7 255.2,230.7 255.2,230.7 255.2,230.7 255.2,230.7 255.2,230.7 255.2,230.7 256.0,230.2 256.0,230.2 256.0,230.2 256.0,230.2 256.0,230.2 256.0,230.2 256.0,230.2 256.0,230.2 256.0,230.2 256.1,230.2 256.8,229.7 256.8,229.7 256.8,229.7 256.9,229.7 256.9,229.7 256.9,229.7 256.9,229.7 256.9,229.7 256.9,229.7 256.9,229.7 257.7,229.3 257.7,229.3 257.7,229.3 257.7,229.3 257.7,229.3 257.7,229.3 257.7,229.3 257.7,229.3 257.7,229.3 257.7,229.3 258.5,228.8 258.5,228.8 258.5,228.8 258.5,228.8 258.5,228.8 258.5,228.8 258.5,228.8 258.5,228.8 258.5,228.8 258.5,228.8 259.3,228.3 259.3,228.3 259.3,228.3 259.3,228.3 259.3,228.3 259.3,228.3 259.3,228.3 259.3,228.3 259.3,228.3 259.4,228.3 260.1,227.9 260.1,227.8 260.2,227.8 260.2,227.8 260.2,227.8 260.2,227.8 260.2,227.8 260.2,227.8 260.2,227.8 260.2,227.8 261.0,227.4 261.0,227.4 261.0,227.4 261.0,227.4 261.0,227.4 261.0,227.4 261.0,227.4 261.0,227.4 261.0,227.4 261.0,227.4 261.8,226.9 261.8,226.9 261.8,226.9 261.8,226.9 261.8,226.9 261.8,226.9 261.8,226.9 261.8,226.9 261.8,226.9 261.8,226.9 262.6,226.4 262.6,226.4 262.6,226.4 262.6,226.4 262.6,226.4 262.6,226.4 262.6,226.4 262.6,226.4 262.7,226.4 262.7,226.4 263.4,226.0 263.4,226.0 263.5,226.0 263.5,225.9 263.5,225.9 263.5,225.9 263.5,225.9 263.5,225.9 263.5,225.9 263.5,225.9 264.3,225.5 264.3,225.5 264.3,225.5 264.3,225.5 264.3,225.5 264.3,225.5 264.3,225.5 264.3,225.5 264.3,225.5 264.3,225.5 265.1,225.0 265.1,225.0 265.1,225.0 265.1,225.0 265.1,225.0 265.1,225.0 265.1,225.0 265.1,225.0 265.1,225.0 265.1,225.0 265.9,224.5 265.9,224.5 265.9,224.5 265.9,224.5 265.9,224.5 265.9,224.5 265.9,224.5 265.9,224.5 266.0,224.5 266.0,224.5 266.7,224.1 266.7,224.1 266.8,224.1 266.8,224.1 266.8,224.1 266.8,224.1 266.8,224.0 266.8,224.0 266.8,224.0 266.8,224.0 267.6,223.6 267.6,223.6 267.6,223.6 267.6,223.6 267.6,223.6 267.6,223.6 267.6,223.6 267.6,223.6 267.6,223.6 267.6,223.6 268.4,223.1 268.4,223.1 268.4,223.1 268.4,223.1 268.4,223.1 268.4,223.1 268.4,223.1 268.4,223.1 268.4,223.1 268.4,223.1 269.2,222.6 269.2,222.6 269.2,222.6 269.2,222.6 269.2,222.6 269.2,222.6 269.2,222.6 269.3,222.6 269.3,222.6 269.3,222.6 270.0,222.2 270.1,222.2 270.1,222.2 270.1,222.2 270.1,222.2 270.1,222.2 270.1,222.2 270.1,222.2 270.1,222.1 270.1,222.1 270.9,221.7 270.9,221.7 270.9,221.7 270.9,221.7 270.9,221.7 270.9,221.7 270.9,221.7 270.9,221.7 270.9,221.7 270.9,221.7 271.7,221.2 271.7,221.2 271.7,221.2 271.7,221.2 271.7,221.2 271.7,221.2 271.7,221.2 271.7,221.2 271.7,221.2 271.7,221.2 272.5,220.7 272.5,220.7 272.5,220.7 272.5,220.7 272.5,220.7 272.5,220.7 272.5,220.7 272.6,220.7 272.6,220.7 272.6,220.7 273.3,220.3 273.4,220.3 273.4,220.3 273.4,220.3 273.4,220.3 273.4,220.3 273.4,220.3 273.4,220.3 273.4,220.3 273.4,220.3 274.2,219.8 274.2,219.8 274.2,219.8 274.2,219.8 274.2,219.8 274.2,219.8 274.2,219.8 274.2,219.8 274.2,219.8 274.2,219.8 275.0,219.3 275.0,219.3 275.0,219.3 275.0,219.3 275.0,219.3 275.0,219.3 275.0,219.3 275.0,219.3 275.0,219.3 275.0,219.3 275.8,218.9 275.8,218.9 275.8,218.8 275.8,218.8 275.8,218.8 275.8,218.8 275.9,218.8 275.9,218.8 275.9,218.8 275.9,218.8 276.7,218.4 276.7,218.4 276.7,218.4 276.7,218.4 276.7,218.4 276.7,218.4 276.7,218.4 276.7,218.4 276.7,218.4 276.7,218.4 277.5,217.9 277.5,217.9 277.5,217.9 277.5,217.9 277.5,217.9 277.5,217.9 277.5,217.9 277.5,217.9 277.5,217.9 277.5,217.9 278.3,217.4 278.3,217.4 278.3,217.4 278.3,217.4 278.3,217.4 278.3,217.4 278.3,217.4 278.3,217.4 278.3,217.4 278.3,217.4 279.1,217.0 279.1,217.0 279.1,217.0 279.1,217.0 279.1,216.9 279.1,216.9 279.2,216.9 279.2,216.9 279.2,216.9 279.2,216.9 280.0,216.5 280.0,216.5 280.0,216.5 280.0,216.5 280.0,216.5 280.0,216.5 280.0,216.5 280.0,216.5 280.0,216.5 280.0,216.5 280.8,216.0 280.8,216.0 280.8,216.0 280.8,216.0 280.8,216.0 280.8,216.0 280.8,216.0 280.8,216.0 280.8,216.0 280.8,216.0 281.6,215.5 281.6,215.5 281.6,215.5 281.6,215.5 281.6,215.5 281.6,215.5 281.6,215.5 281.6,215.5 281.6,215.5 281.6,215.5 282.4,215.1 282.4,215.1 282.4,215.1 282.4,215.1 282.4,215.1 282.4,215.1 282.5,215.1 282.5,215.0 282.5,215.0 282.5,215.0 283.3,214.6 283.3,214.6 283.3,214.6 283.3,214.6 283.3,214.6 283.3,214.6 283.3,214.6 283.3,214.6 283.3,214.6 283.3,214.6 284.1,214.1 284.1,214.1 284.1,214.1 284.1,214.1 284.1,214.1 284.1,214.1 284.1,214.1 284.1,214.1 284.1,214.1 284.1,214.1 284.9,213.6 284.9,213.6 284.9,213.6 284.9,213.6 284.9,213.6 284.9,213.6 284.9,213.6 284.9,213.6 284.9,213.6 284.9,213.6 285.7,213.2 285.7,213.2 285.7,213.2 285.7,213.2 285.8,213.2 285.8,213.2 285.8,213.2 285.8,213.2 285.8,213.1 285.8,213.1 286.6,212.7 286.6,212.7 286.6,212.7 286.6,212.7 286.6,212.7 286.6,212.7 286.6,212.7 286.6,212.7 286.6,212.7 286.6,212.7 287.4,212.2 287.4,212.2 287.4,212.2 287.4,212.2 287.4,212.2 287.4,212.2 287.4,212.2 287.4,212.2 287.4,212.2 287.4,212.2 288.2,211.7 288.2,211.7 288.2,211.7 288.2,211.7 288.2,211.7 288.2,211.7 288.2,211.7 288.2,211.7 288.2,211.7 288.2,211.7 289.0,211.3 289.0,211.3 289.0,211.3 289.0,211.3 289.1,211.3 289.1,211.3 289.1,211.3 289.1,211.3 289.1,211.3 289.1,211.3 289.9,210.8 289.9,210.8 289.9,210.8 289.9,210.8 289.9,210.8 289.9,210.8 289.9,210.8 289.9,210.8 289.9,210.8 289.9,210.8 290.7,210.3 290.7,210.3 290.7,210.3 290.7,210.3 290.7,210.3 290.7,210.3 290.7,210.3 290.7,210.3 290.7,210.3 290.7,210.3 291.5,209.9 291.5,209.9 291.5,209.9 291.5,209.8 291.5,209.8 291.5,209.8 291.5,209.8 291.5,209.8 291.5,209.8 291.6,209.8 292.3,209.4 292.3,209.4 292.3,209.4 292.4,209.4 292.4,209.4 292.4,209.4 292.4,209.4 292.4,209.4 292.4,209.4 292.4,209.4 293.2,209.0 293.2,209.0 293.2,209.0 293.2,209.0 293.2,209.0 293.2,209.0 293.2,209.0 293.2,209.0 293.2,209.0 293.2,209.0 294.0,208.7 294.0,208.7 294.0,208.6 294.0,208.6 294.0,208.6 294.0,208.6 294.0,208.6 294.0,208.6 294.0,208.6 294.0,208.6 294.8,208.3 294.8,208.3 294.8,208.3 294.8,208.3 294.8,208.3 294.8,208.3 294.8,208.3 294.8,208.3 294.8,208.3 294.9,208.3 295.6,208.0 295.6,208.0 295.6,208.0 295.7,208.0 295.7,208.0 295.7,208.0 295.7,208.0 295.7,208.0 295.7,208.0 295.7,208.0 296.5,207.7 296.5,207.7 296.5,207.7 296.5,207.7 296.5,207.7 296.5,207.7 296.5,207.7 296.5,207.7 296.5,207.7 296.5,207.7 297.3,207.5 297.3,207.5 297.3,207.5 297.3,207.5 297.3,207.5 297.3,207.5 297.3,207.5 297.3,207.5 297.3,207.5 297.3,207.5 298.1,207.3 298.1,207.3 298.1,207.3 298.1,207.3 298.1,207.3 298.1,207.3 298.1,207.3 298.1,207.3 298.1,207.3 298.2,207.3 298.9,207.1 298.9,207.1 299.0,207.1 299.0,207.1 299.0,207.1 299.0,207.1 299.0,207.1 299.0,207.1 299.0,207.1 299.0,207.1 299.8,207.0 299.8,207.0 299.8,207.0 299.8,207.0 299.8,207.0 299.8,207.0 299.8,207.0 299.8,207.0 299.8,207.0 299.8,207.0 300.6,206.8 300.6,206.8 300.6,206.8 300.6,206.8 300.6,206.8 300.6,206.8 300.6,206.8 300.6,206.8 300.6,206.8 300.6,206.8 301.4,206.8 301.4,206.8 301.4,206.8 301.4,206.8 301.4,206.8 301.4,206.8 301.4,206.8 301.4,206.8 301.5,206.8 301.5,206.8 302.2,206.7 302.2,206.7 302.3,206.7 302.3,206.7 302.3,206.7 302.3,206.7 302.3,206.7 302.3,206.7 302.3,206.7 302.3,206.7 303.1,206.7 303.1,206.7 303.1,206.7 303.1,206.7 303.1,206.7 303.1,206.7 303.1,206.7 303.1,206.7 303.1,206.7 303.1,206.7 303.9,206.7 303.9,206.7 303.9,206.7 303.9,206.7 303.9,206.7 303.9,206.7 303.9,206.7 303.9,206.7 303.9,206.7 303.9,206.7 304.7,206.7 304.7,206.7 304.7,206.7 304.7,206.7 304.7,206.7 304.7,206.7 304.7,206.7 304.7,206.7 304.8,206.7 304.8,206.7 305.5,206.7 305.6,206.7 305.6,206.7 305.6,206.7 305.6,206.7 305.6,206.7 305.6,206.7 305.6,206.7 305.6,206.7 305.6,206.7 306.4,206.7 306.4,206.7 306.4,206.7 306.4,206.7 306.4,206.7 306.4,206.7 306.4,206.7 306.4,206.7 306.4,206.7 306.4,206.7 307.2,206.7 307.2,206.7 307.2,206.7 307.2,206.7 307.2,206.7 307.2,206.7 307.2,206.7 307.2,206.7 307.2,206.7 307.2,206.7 308.0,206.7 308.0,206.7 308.0,206.7 308.0,206.7 308.0,206.7 308.0,206.7 308.0,206.7 308.1,206.7 308.1,206.7 308.1,206.7 308.8,206.7 308.9,206.7 308.9,206.7 308.9,206.7 308.9,206.7 308.9,206.7 308.9,206.7 308.9,206.7 308.9,206.7 308.9,206.7 309.7,206.7 309.7,206.7 309.7,206.7 309.7,206.7 309.7,206.7 309.7,206.7 309.7,206.7 309.7,206.7 309.7,206.7 309.7,206.7 310.5,206.7 310.5,206.7 310.5,206.7 310.5,206.7 310.5,206.7 310.5,206.7 310.5,206.7 310.5,206.7 310.5,206.7 310.5,206.7 311.3,206.7 311.3,206.7 311.3,206.7 311.3,206.7 311.3,206.7 311.3,206.7 311.3,206.7 311.4,206.7 311.4,206.7 311.4,206.7 312.1,206.7 312.2,206.7 312.2,206.7 312.2,206.7 312.2,206.7 312.2,206.7 312.2,206.7 312.2,206.7 312.2,206.7 312.2,206.7 313.0,206.7 313.0,206.7 313.0,206.7 313.0,206.7 313.0,206.7 313.0,206.7 313.0,206.7 313.0,206.7 313.0,206.7 313.0,206.7 313.8,206.7 313.8,206.7 313.8,206.7 313.8,206.7 313.8,206.7 313.8,206.7 313.8,206.7 313.8,206.7 313.8,206.7 313.8,206.7 314.6,206.7 314.6,206.7 314.6,206.7 314.6,206.7 314.6,206.7 314.6,206.7 314.7,206.7 314.7,206.7 314.7,206.7 314.7,206.7 315.5,206.7 315.5,206.7 315.5,206.7 315.5,206.7 315.5,206.7 315.5,206.7 315.5,206.7 315.5,206.7 315.5,206.7 315.5,206.7 316.3,206.7 316.3,206.7 316.3,206.7 316.3,206.7 316.3,206.7 316.3,206.7 316.3,206.7 316.3,206.7 316.3,206.7 316.3,206.7 317.1,206.7 317.1,206.7 317.1,206.7 317.1,206.7 317.1,206.7 317.1,206.7 317.1,206.7 317.1,206.7 317.1,206.7 317.1,206.7 317.9,206.7 317.9,206.7 317.9,206.7 317.9,206.7 317.9,206.7 317.9,206.7 318.0,206.7 318.0,206.7 318.0,206.7 318.0,206.7 318.8,206.7 318.8,206.7 318.8,206.7 318.8,206.7 318.8,206.7 318.8,206.7 318.8,206.7 318.8,206.7 318.8,206.7 318.8,206.7 319.6,206.7 319.6,206.7 319.6,206.7 319.6,206.7 319.6,206.7 319.6,206.7 319.6,206.7 319.6,206.7 319.6,206.7 319.6,206.7 320.4,206.7 320.4,206.7 320.4,206.7 320.4,206.7 320.4,206.7 320.4,206.7 320.4,206.7 320.4,206.7 320.4,206.7 320.4,206.7 321.2,206.7 321.2,206.7 321.2,206.7 321.2,206.7 321.2,206.7 321.3,206.7 321.3,206.7 321.3,206.7 321.3,206.7 321.3,206.7 322.1,206.7 322.1,206.7 322.1,206.7 322.1,206.7 322.1,206.7 322.1,206.7 322.1,206.7 322.1,206.7 322.1,206.7 322.1,206.7 322.9,206.7 322.9,206.7 322.9,206.7 322.9,206.7 322.9,206.7 322.9,206.7 322.9,206.7 322.9,206.7 322.9,206.7 322.9,206.7 323.7,206.7 323.7,206.7 323.7,206.7 323.7,206.7 323.7,206.7 323.7,206.7 323.7,206.7 323.7,206.7 323.7,206.7 323.7,206.7 324.5,206.7 324.5,206.7 324.5,206.7 324.5,206.7 324.5,206.7 324.6,206.7 324.6,206.7 324.6,206.7 324.6,206.7 324.6,206.7 325.4,206.7 325.4,206.7 325.4,206.7 325.4,206.7 325.4,206.7 325.4,206.7 325.4,206.7 325.4,206.7 325.4,206.7 325.4,206.7 326.2,206.7 326.2,206.7 326.2,206.7 326.2,206.7 326.2,206.7 326.2,206.7 326.2,206.7 326.2,206.7 326.2,206.7 326.2,206.7 327.0,206.7 327.0,206.7 327.0,206.7 327.0,206.7 327.0,206.7 327.0,206.7 327.0,206.7 327.0,206.7 327.0,206.7 327.0,206.7 327.8,206.7 327.8,206.7 327.8,206.7 327.8,206.7 327.8,206.7 327.9,206.7 327.9,206.7 327.9,206.7 327.9,206.7 327.9,206.7 328.7,206.7 328.7,206.7 328.7,206.7 328.7,206.7 328.7,206.7 328.7,206.7 328.7,206.7 328.7,206.7 328.7,206.7 328.7,206.7 329.5,206.7 329.5,206.7 329.5,206.7 329.5,206.7 329.5,206.7 329.5,206.7 329.5,206.7 329.5,206.7 329.5,206.7 329.5,206.7 330.3,206.7 330.3,206.7 330.3,206.7 330.3,206.7 330.3,206.7 330.3,206.7 330.3,206.7 330.3,206.7 330.3,206.7 330.3,206.7 331.1,206.7 331.1,206.7 331.1,206.7 331.1,206.7 331.2,206.7 331.2,206.7 331.2,206.7 331.2,206.7 331.2,206.7 331.2,206.7 332.0,206.7 332.0,206.7 332.0,206.7 332.0,206.7 332.0,206.7 332.0,206.7 332.0,206.7 332.0,206.7 332.0,206.7 332.0,206.7 332.8,206.7 332.8,206.7 332.8,206.7 332.8,206.7 332.8,206.7 332.8,206.7 332.8,206.7 332.8,206.7 332.8,206.7 332.8,206.7 333.6,206.7 333.6,206.7 333.6,206.7 333.6,206.7 333.6,206.7 333.6,206.7 333.6,206.7 333.6,206.7 333.6,206.7 333.6,206.7 334.4,206.7 334.4,206.7 334.4,206.7 334.4,206.7 334.5,206.7 334.5,206.7 334.5,206.7 334.5,206.7 334.5,206.7 334.5,206.7 335.3,206.7 335.3,206.7 335.3,206.7 335.3,206.7 335.3,206.7 335.3,206.7 335.3,206.7 335.3,206.7 335.3,206.7 335.3,206.7 336.1,206.7 336.1,206.7 336.1,206.7 336.1,206.7 336.1,206.7 336.1,206.7 336.1,206.7 336.1,206.7 336.1,206.7 336.1,206.7 336.9,206.7 336.9,206.7 336.9,206.7 336.9,206.7 336.9,206.7 336.9,206.7 336.9,206.7 336.9,206.7 336.9,206.7 337.0,206.7 337.7,206.7 337.7,206.7 337.7,206.7 337.8,206.7 337.8,206.7 337.8,206.7 337.8,206.7 337.8,206.7 337.8,206.7 337.8,206.7 338.6,206.7 338.6,206.7 338.6,206.7 338.6,206.7 338.6,206.7 338.6,206.7 338.6,206.7 338.6,206.7 338.6,206.7 338.6,206.7 339.4,206.7 339.4,206.7 339.4,206.7 339.4,206.7 339.4,206.7 339.4,206.7 339.4,206.7 339.4,206.7 339.4,206.7 339.4,206.7 340.2,206.7 340.2,206.7 340.2,206.7 340.2,206.7 340.2,206.7 340.2,206.7 340.2,206.7 340.2,206.7 340.2,206.7 340.3,206.7 341.0,206.7 341.0,206.7 341.0,206.7 341.1,206.7 341.1,206.7 341.1,206.7 341.1,206.7 341.1,206.7 341.1,206.7 341.1,206.7 341.9,206.7 341.9,206.7 341.9,206.7 341.9,206.7 341.9,206.7 341.9,206.7 341.9,206.7 341.9,206.7 341.9,206.7 341.9,206.7 342.7,206.7 342.7,206.7 342.7,206.7 342.7,206.7 342.7,206.7 342.7,206.7 342.7,206.7 342.7,206.7 342.7,206.7 342.7,206.7 343.5,206.7 343.5,206.7 343.5,206.7 343.5,206.7 343.5,206.7 343.5,206.7 343.5,206.7 343.5,206.7 343.5,206.7 343.6,206.7 344.3,206.7 344.3,206.7 344.4,206.7 344.4,206.7 344.4,206.7 344.4,206.7 344.4,206.7 344.4,206.7 344.4,206.7 344.4,206.7 345.2,206.7 345.2,206.7 345.2,206.7 345.2,206.7 345.2,206.7 345.2,206.7 345.2,206.7 345.2,206.7 345.2,206.7 345.2,206.7 346.0,206.7 346.0,206.7 346.0,206.7 346.0,206.7 346.0,206.7 346.0,206.7 346.0,206.7 346.0,206.7 346.0,206.7 346.0,206.7 346.8,206.7 346.8,206.7 346.8,206.7 346.8,206.7 346.8,206.7 346.8,206.7 346.8,206.7 346.8,206.7 346.9,206.7 346.9,206.7 347.6,206.7 347.6,206.7 347.7,206.7 347.7,206.7 347.7,206.7 347.7,206.7 347.7,206.7 347.7,206.7 347.7,206.7 347.7,206.7 348.5,206.7 348.5,206.7 348.5,206.7 348.5,206.7 348.5,206.7 348.5,206.7 348.5,206.7 348.5,206.7 348.5,206.7 348.5,206.7 349.3,206.7 349.3,206.7 349.3,206.7 349.3,206.7 349.3,206.7 349.3,206.7 349.3,206.7 349.3,206.7 349.3,206.7 349.3,206.7 350.1,206.7 350.1,206.7 350.1,206.7 350.1,206.7 350.1,206.7 350.1,206.7 350.1,206.7 350.1,206.7 350.2,206.7 350.2,206.7 350.9,206.7 351.0,206.7 351.0,206.7 351.0,206.7 351.0,206.7 351.0,206.7 351.0,206.7 351.0,206.7 351.0,206.7 351.0,206.7 351.8,206.7 351.8,206.7 351.8,206.7 351.8,206.7 351.8,206.7 351.8,206.7 351.8,206.7 351.8,206.7 351.8,206.7 351.8,206.7 352.6,206.7 352.6,206.7 352.6,206.7 352.6,206.7 352.6,206.7 352.6,206.7 352.6,206.7 352.6,206.7 352.6,206.7 352.6,206.7 353.4,206.7 353.4,206.7 353.4,206.7 353.4,206.7 353.4,206.7 353.4,206.7 353.4,206.7 353.5,206.7 353.5,206.7 353.5,206.7 354.2,206.7 354.3,206.7 354.3,206.7 354.3,206.7 354.3,206.7 354.3,206.7 354.3,206.7 354.3,206.7 354.3,206.7 354.3,206.7 355.1,206.7 355.1,206.7 355.1,206.7 355.1,206.7 355.1,206.7 355.1,206.7 355.1,206.7 355.1,206.7 355.1,206.7 355.1,206.7 355.9,206.7 355.9,206.7 355.9,206.7 355.9,206.7 355.9,206.7 355.9,206.7 355.9,206.7 355.9,206.7 355.9,206.7 355.9,206.7 356.7,206.7 356.7,206.7 356.7,206.7 356.7,206.7 356.7,206.7 356.7,206.7 356.7,206.7 356.8,206.7 356.8,206.7 356.8,206.7 357.5,206.7 357.6,206.7 357.6,206.7 357.6,206.7 357.6,206.7 357.6,206.7 357.6,206.7 357.6,206.7 357.6,206.7 357.6,206.7 358.4,206.7 358.4,206.7 358.4,206.7 358.4,206.7 358.4,206.7 358.4,206.7 358.4,206.7 358.4,206.7 358.4,206.7 358.4,206.7 359.2,206.7 359.2,206.7 359.2,206.7 359.2,206.7 359.2,206.7 359.2,206.7 359.2,206.7 359.2,206.7 359.2,206.7 359.2,206.7 360.0,206.7 360.0,206.7 360.0,206.7 360.0,206.7 360.0,206.7 360.0,206.7 360.1,206.7 360.1,206.7 360.1,206.7 360.1,206.7 360.9,206.7 360.9,206.7 360.9,206.7 360.9,206.7 360.9,206.7 360.9,206.7 360.9,206.7 360.9,206.7 360.9,206.7 360.9,206.7 361.7,206.7 361.7,206.7 361.7,206.7 361.7,206.7 361.7,206.7 361.7,206.7 361.7,206.7 361.7,206.7 361.7,206.7 361.7,206.7 362.5,206.7 362.5,206.7 362.5,206.7 362.5,206.7 362.5,206.7 362.5,206.7 362.5,206.7 362.5,206.7 362.5,206.7 362.5,206.7 363.3,206.7 363.3,206.7 363.3,206.7 363.3,206.7 363.3,206.7 363.3,206.7 363.4,206.7 363.4,206.7 363.4,206.7 363.4,206.7 364.2,206.7 364.2,206.7 364.2,206.7 364.2,206.7 364.2,206.7 364.2,206.7 364.2,206.7 364.2,206.7 364.2,206.7 364.2,206.7 365.0,206.7 365.0,206.7 365.0,206.7 365.0,206.7 365.0,206.7 365.0,206.7 365.0,206.7 365.0,206.7 365.0,206.7 365.0,206.7 365.8,206.7 365.8,206.7 365.8,206.7 365.8,206.7 365.8,206.7 365.8,206.7 365.8,206.7 365.8,206.7 365.8,206.7 365.8,206.7 366.6,206.7 366.6,206.7 366.6,206.7 366.6,206.7 366.6,206.7 366.7,206.7 366.7,206.7 366.7,206.7 366.7,206.7 366.7,206.7 367.5,206.7 367.5,206.7 367.5,206.7 367.5,206.7 367.5,206.7 367.5,206.7 367.5,206.7 367.5,206.7 367.5,206.7 367.5,206.7 368.3,206.7 368.3,206.7 368.3,206.7 368.3,206.7 368.3,206.7 368.3,206.7 368.3,206.7 368.3,206.7 368.3,206.7 368.3,206.7 369.1,206.7 369.1,206.7 369.1,206.7 369.1,206.7 369.1,206.7 369.1,206.7 369.1,206.7 369.1,206.7 369.1,206.7 369.1,206.7 369.9,206.7 369.9,206.7 369.9,206.7 369.9,206.7 369.9,206.7 370.0,206.7 370.0,206.7 370.0,206.7 370.0,206.7 370.0,206.7 370.8,206.7 370.8,206.7 370.8,206.7 370.8,206.7 370.8,206.7 370.8,206.7 370.8,206.7 370.8,206.7 370.8,206.7 370.8,206.7 371.6,206.7 371.6,206.7 371.6,206.7 371.6,206.7 371.6,206.7 371.6,206.7 371.6,206.7 371.6,206.7 371.6,206.7 371.6,206.7 372.4,206.7 372.4,206.7 372.4,206.7 372.4,206.7 372.4,206.7 372.4,206.7 372.4,206.7 372.4,206.7 372.4,206.7 372.4,206.7 373.2,206.7 373.2,206.7 373.2,206.7 373.2,206.7 373.2,206.7 373.3,206.7 373.3,206.7 373.3,206.7 373.3,206.7 373.3,206.7 374.1,206.7 374.1,206.7 374.1,206.7 374.1,206.7 374.1,206.7 374.1,206.7 374.1,206.7 374.1,206.7 374.1,206.7 374.1,206.7 374.9,206.7 374.9,206.7 374.9,206.7 374.9,206.7 374.9,206.7 374.9,206.7 374.9,206.7 374.9,206.7 374.9,206.7 374.9,206.7 375.7,206.7 375.7,206.7 375.7,206.7 375.7,206.7 375.7,206.7 375.7,206.7 375.7,206.7 375.7,206.7 375.7,206.7 375.7,206.7 376.5,206.7 376.5,206.7 376.5,206.7 376.5,206.7 376.6,206.7 376.6,206.7 376.6,206.7 376.6,206.7 376.6,206.7 376.6,206.7 377.4,206.7 377.4,206.7 377.4,206.7 377.4,206.7 377.4,206.7 377.4,206.7 377.4,206.7 377.4,206.7 377.4,206.7 377.4,206.7 378.2,206.7 378.2,206.7 378.2,206.7 378.2,206.7 378.2,206.7 378.2,206.7 378.2,206.7 378.2,206.7 378.2,206.7 378.2,206.7 379.0,206.7 379.0,206.7 379.0,206.7 379.0,206.7 379.0,206.7 379.0,206.7 379.0,206.7 379.0,206.7 379.0,206.7 379.0,206.7 379.8,206.7 379.8,206.7 379.8,206.7 379.8,206.7 379.9,206.7 379.9,206.7 379.9,206.7 379.9,206.7 379.9,206.7 379.9,206.7 380.7,206.7 380.7,206.7 380.7,206.7 380.7,206.7 380.7,206.7 380.7,206.7 380.7,206.7 380.7,206.7 380.7,206.7 380.7,206.7 381.5,206.7 381.5,206.7 381.5,206.7 381.5,206.7 381.5,206.7 381.5,206.7 381.5,206.7 381.5,206.7 381.5,206.7 381.5,206.7 382.3,206.8 382.3,206.8 382.3,206.8 382.3,206.8 382.3,206.8 382.3,206.8 382.3,206.8 382.3,206.8 382.3,206.8 382.4,206.8 383.1,206.8 383.1,206.8 383.1,206.8 383.2,206.8 383.2,206.8 383.2,206.8 383.2,206.8 383.2,206.8 383.2,206.8 383.2,206.8 384.0,206.8 384.0,206.8 384.0,206.8 384.0,206.8 384.0,206.8 384.0,206.8 384.0,206.8 384.0,206.8 384.0,206.8 384.0,206.8 384.8,206.8 384.8,206.8 384.8,206.8 384.8,206.8 384.8,206.8 384.8,206.8 384.8,206.8 384.8,206.8 384.8,206.8 384.8,206.8 385.6,206.8 385.6,206.8 385.6,206.8 385.6,206.8 385.6,206.8 385.6,206.8 385.6,206.8 385.6,206.8 385.6,206.8 385.7,206.8 386.4,206.8 386.4,206.8 386.4,206.8 386.5,206.8 386.5,206.8 386.5,206.8 386.5,206.8 386.5,206.8 386.5,206.8 386.5,206.8 387.3,206.8 387.3,206.8 387.3,206.8 387.3,206.8 387.3,206.8 387.3,206.8 387.3,206.8 387.3,206.8 387.3,206.8 387.3,206.8 388.1,206.8 388.1,206.8 388.1,206.8 388.1,206.8 388.1,206.8 388.1,206.8 388.1,206.8 388.1,206.8 388.1,206.8 388.1,206.8 388.9,206.8 388.9,206.8 388.9,206.8 388.9,206.8 388.9,206.8 388.9,206.8 388.9,206.8 388.9,206.8 388.9,206.8 389.0,206.8 389.7,206.8 389.7,206.8 389.8,206.8 389.8,206.8 389.8,206.8 389.8,206.8 389.8,206.8 389.8,206.8 389.8,206.8 389.8,206.8 390.6,206.8 390.6,206.8 390.6,206.8 390.6,206.8 390.6,206.8 390.6,206.8 390.6,206.8 390.6,206.8 390.6,206.8 390.6,206.8 391.4,206.8 391.4,206.8 391.4,206.8 391.4,206.8 391.4,206.8 391.4,206.8 391.4,206.8 391.4,206.8 391.4,206.8 391.4,206.8 392.2,206.8 392.2,206.8 392.2,206.8 392.2,206.8 392.2,206.8 392.2,206.8 392.2,206.8 392.2,206.8 392.3,206.8 392.3,206.8 393.0,206.8 393.0,206.8 393.1,206.8 393.1,206.8 393.1,206.8 393.1,206.8 393.1,206.8 393.1,206.8 393.1,206.8 393.1,206.8 393.9,206.8 393.9,206.8 393.9,206.8 393.9,206.8 393.9,206.8 393.9,206.8 393.9,206.8 393.9,206.8 393.9,206.8 393.9,206.8 394.7,206.8 394.7,206.8 394.7,206.8 394.7,206.8 394.7,206.8 394.7,206.8 394.7,206.8 394.7,206.8 394.7,206.8 394.7,206.8 395.5,206.8 395.5,206.8 395.5,206.8 395.5,206.8 395.5,206.8 395.5,206.8 395.5,206.8 395.5,206.8 395.6,206.8 395.6,206.8 396.3,206.8 396.4,206.8 396.4,206.8 396.4,206.8 396.4,206.8 396.4,206.8 396.4,206.8 396.4,206.8 396.4,206.8 396.4,206.8 397.2,206.8 397.2,206.8 397.2,206.8 397.2,206.8 397.2,206.8 397.2,206.8 397.2,206.8 397.2,206.8 397.2,206.8 397.2,206.8 398.0,206.8 398.0,206.8 398.0,206.8 398.0,206.8 398.0,206.8 398.0,206.8 398.0,206.8 398.0,206.8 398.0,206.8 398.0,206.8 398.8,206.8 398.8,206.8 398.8,206.8 398.8,206.8 398.8,206.8 398.8,206.8 398.8,206.8 398.9,206.8 398.9,206.8 398.9,206.8 399.6,206.8 399.7,206.8 399.7,206.8 399.7,206.8 399.7,206.8 399.7,206.8 399.7,206.8 399.7,206.8 399.7,206.8 399.7,206.8 400.5,206.8 400.5,206.8 400.5,206.8 400.5,206.8 400.5,206.8 400.5,206.8 400.5,206.8 400.5,206.8 400.5,206.8 400.5,206.8 401.3,206.7 401.3,206.7 401.3,206.7 401.3,206.7 401.3,206.7 401.3,206.7 401.3,206.7 401.3,206.7 401.3,206.7 401.3,206.7 402.1,206.7 402.1,206.7 402.1,206.7 402.1,206.7 402.1,206.7 402.1,206.7 402.1,206.7 402.2,206.7 402.2,206.7 402.2,206.7 402.9,206.7 403.0,206.7 403.0,206.7 403.0,206.7 403.0,206.7 403.0,206.7 403.0,206.7 403.0,206.7 403.0,206.7 403.0,206.7 403.8,206.7 403.8,206.7 403.8,206.7 403.8,206.7 403.8,206.7 403.8,206.7 403.8,206.7 403.8,206.7 403.8,206.7 403.8,206.7 404.6,206.7 404.6,206.7 404.6,206.7 404.6,206.7 404.6,206.7 404.6,206.7 404.6,206.7 404.6,206.7 404.6,206.7 404.6,206.7 405.4,206.7 405.4,206.7 405.4,206.7 405.4,206.7 405.4,206.7 405.4,206.7 405.5,206.7 405.5,206.7 405.5,206.7 405.5,206.7 406.3,206.7 406.3,206.7 406.3,206.7 406.3,206.7 406.3,206.7 406.3,206.7 406.3,206.7 406.3,206.7 406.3,206.7 406.3,206.7 407.1,206.7 407.1,206.7 407.1,206.7 407.1,206.7 407.1,206.7 407.1,206.7 407.1,206.7 407.1,206.7 407.1,206.7 407.1,206.7 407.9,206.7 407.9,206.7 407.9,206.7 407.9,206.7 407.9,206.7 407.9,206.7 407.9,206.7 407.9,206.7 407.9,206.7 407.9,206.7 408.7,206.7 408.7,206.7 408.7,206.7 408.7,206.7 408.7,206.7 408.7,206.7 408.8,206.7 408.8,206.7 408.8,206.7 408.8,206.7 409.6,206.7 409.6,206.7 409.6,206.7 409.6,206.7 409.6,206.7 409.6,206.7 409.6,206.7 409.6,206.7 409.6,206.7 409.6,206.7 410.4,206.7 410.4,206.7 410.4,206.7 410.4,206.7 410.4,206.7 410.4,206.7 410.4,206.7 410.4,206.7 410.4,206.7 410.4,206.7 411.2,206.7 411.2,206.7 411.2,206.7 411.2,206.7 411.2,206.7 411.2,206.7 411.2,206.7 411.2,206.7 411.2,206.7 411.2,206.7 412.0,206.7 412.0,206.7 412.0,206.7 412.0,206.7 412.0,206.7 412.1,206.7 412.1,206.7 412.1,206.7 412.1,206.7 412.1,206.7 412.9,206.7 412.9,206.7 412.9,206.7 412.9,206.7 412.9,206.7 412.9,206.7 412.9,206.7 412.9,206.7 412.9,206.7 412.9,206.7 413.7,206.7 413.7,206.7 413.7,206.7 413.7,206.7 413.7,206.7 413.7,206.7 413.7,206.7 413.7,206.7 413.7,206.7 413.7,206.7 414.5,206.7 414.5,206.7 414.5,206.7 414.5,206.7 414.5,206.7 414.5,206.7 414.5,206.7 414.5,206.7 414.5,206.7 414.5,206.7 415.3,206.7 415.3,206.7 415.3,206.7 415.3,206.7 415.3,206.7 415.4,206.7 415.4,206.7 415.4,206.7 415.4,206.7 415.4,206.7 416.2,206.7 416.2,206.7 416.2,206.7 416.2,206.7 416.2,206.7 416.2,206.7 416.2,206.7 416.2,206.7 416.2,206.7 416.2,206.7 417.0,206.7 417.0,206.7 417.0,206.7 417.0,206.7 417.0,206.7 417.0,206.7 417.0,206.7 417.0,206.7 417.0,206.7 417.0,206.7 417.8,206.7 417.8,206.7 417.8,206.7 417.8,206.7 417.8,206.7 417.8,206.7 417.8,206.7 417.8,206.7 417.8,206.7 417.8,206.7 418.6,206.7 418.6,206.7 418.6,206.7 418.6,206.7 418.6,206.7 418.7,206.7 418.7,206.7 418.7,206.7 418.7,206.7 418.7,206.7 419.5,206.7 419.5,206.7 419.5,206.7 419.5,206.7 419.5,206.7 419.5,206.7 419.5,206.7 419.5,206.7 419.5,206.7 419.5,206.7 420.3,206.7 420.3,206.7 420.3,206.7 420.3,206.7 420.3,206.7 420.3,206.7 420.3,206.7 420.3,206.7 420.3,206.7 420.3,206.7 421.1,206.7 421.1,206.7 421.1,206.7 421.1,206.7 421.1,206.7 421.1,206.7 421.1,206.7 421.1,206.7 421.1,206.7 421.1,206.7 421.9,206.7 421.9,206.7 421.9,206.7 421.9,206.7 422.0,206.7 422.0,206.7 422.0,206.7 422.0,206.7 422.0,206.7 422.0,206.7 422.8,206.7 422.8,206.7 422.8,206.7 422.8,206.7 422.8,206.7 422.8,206.7 422.8,206.7 422.8,206.7 422.8,206.7 422.8,206.7 423.6,206.7 423.6,206.7 423.6,206.7 423.6,206.7 423.6,206.7 423.6,206.7 423.6,206.7 423.6,206.7 423.6,206.7 423.6,206.7 424.4,206.7 424.4,206.7 424.4,206.7 424.4,206.7 424.4,206.7 424.4,206.7 424.4,206.7 424.4,206.7 424.4,206.7 424.4,206.7 425.2,206.7 425.2,206.7 425.2,206.7 425.2,206.7 425.3,206.7 425.3,206.7 425.3,206.7 425.3,206.7 425.3,206.7 425.3,206.7 426.1,206.7 426.1,206.7 426.1,206.7 426.1,206.7 426.1,206.7 426.1,206.7 426.1,206.7 426.1,206.7 426.1,206.7 426.1,206.7 426.9,206.7 426.9,206.7 426.9,206.7 426.9,206.7 426.9,206.7 426.9,206.7 426.9,206.7 426.9,206.7 426.9,206.7 426.9,206.7 427.7,206.7 427.7,206.7 427.7,206.7 427.7,206.7 427.7,206.7 427.7,206.7 427.7,206.7 427.7,206.7 427.7,206.7 427.8,206.7 428.5,206.7 428.5,206.7 428.5,206.7 428.6,206.7 428.6,206.7 428.6,206.7 428.6,206.7 428.6,206.7 428.6,206.7 428.6,206.7 429.4,206.7 429.4,206.7 429.4,206.7 429.4,206.7 429.4,206.7 429.4,206.7 429.4,206.7 429.4,206.7 429.4,206.7 429.4,206.7 430.2,206.7 430.2,206.7 430.2,206.7 430.2,206.7 430.2,206.7 430.2,206.7 430.2,206.7 430.2,206.7 430.2,206.7 430.2,206.7 431.0,206.7 431.0,206.7 431.0,206.7 431.0,206.7 431.0,206.7 431.0,206.7 431.0,206.7 431.0,206.7 431.0,206.7 431.1,206.7 431.8,206.7 431.8,206.7 431.8,206.7 431.9,206.7 431.9,206.7 431.9,206.7 431.9,206.7 431.9,206.7 431.9,206.7 431.9,206.7 432.7,206.7 432.7,206.7 432.7,206.7 432.7,206.7 432.7,206.7 432.7,206.7 432.7,206.7 432.7,206.7 432.7,206.7 432.7,206.7 433.5,206.7 433.5,206.7 433.5,206.7 433.5,206.7 433.5,206.7 433.5,206.7 433.5,206.7 433.5,206.7 433.5,206.7 433.5,206.7 434.3,206.7 434.3,206.7 434.3,206.7 434.3,206.7 434.3,206.7 434.3,206.7 434.3,206.7 434.3,206.7 434.3,206.7 434.4,206.7 435.1,206.7 435.1,206.7 435.2,206.7 435.2,206.7 435.2,206.7 435.2,206.7 435.2,206.7 435.2,206.7 435.2,206.7 435.2,206.7 436.0,206.7 436.0,206.7 436.0,206.7 436.0,206.7 436.0,206.7 436.0,206.7 436.0,206.7 436.0,206.7 436.0,206.7 436.0,206.7 436.8,206.7 436.8,206.7 436.8,206.7 436.8,206.7 436.8,206.7 436.8,206.7 436.8,206.7 436.8,206.7 436.8,206.7 436.8,206.7 437.6,206.7 437.6,206.7 437.6,206.7 437.6,206.7 437.6,206.7 437.6,206.7 437.6,206.7 437.6,206.7 437.7,206.7 437.7,206.7 438.4,206.7 438.4,206.7 438.5,206.7 438.5,206.7 438.5,206.7 438.5,206.7 438.5,206.7 438.5,206.7 438.5,206.7 438.5,206.7 439.3,206.7 439.3,206.7 439.3,206.7 439.3,206.7 439.3,206.7 439.3,206.7 439.3,206.7 439.3,206.7 439.3,206.7 439.3,206.7 440.1,206.7 440.1,206.7 440.1,206.7 440.1,206.7 440.1,206.7 440.1,206.7 440.1,206.7 440.1,206.7 440.1,206.7 440.1,206.7 440.9,206.7 440.9,206.7 440.9,206.7 440.9,206.7 440.9,206.7 440.9,206.7 440.9,206.7 440.9,206.7 441.0,206.7 441.0,206.7 441.7,206.7 441.8,206.7 441.8,206.7 441.8,206.7 441.8,206.7 441.8,206.7 441.8,206.7 441.8,206.7 441.8,206.7 441.8,206.7 442.6,206.7 442.6,206.7 442.6,206.7 442.6,206.7 442.6,206.7 442.6,206.7 442.6,206.7 442.6,206.7 442.6,206.7 442.6,206.7 443.4,206.7 443.4,206.7 443.4,206.7 443.4,206.7 443.4,206.7 443.4,206.7 443.4,206.7 443.4,206.7 443.4,206.7 443.4,206.7 444.2,206.7 444.2,206.7 444.2,206.7 444.2,206.7 444.2,206.7 444.2,206.7 444.2,206.7 444.3,206.7 444.3,206.7 444.3,206.7 445.0,206.7 445.1,206.7 445.1,206.7 445.1,206.7 445.1,206.7 445.1,206.7 445.1,206.7 445.1,206.7 445.1,206.7 445.1,206.7 445.9,206.7 445.9,206.7 445.9,206.7 445.9,206.7 445.9,206.7 445.9,206.7 445.9,206.7 445.9,206.7 445.9,206.7 445.9,206.7 446.7,206.7 446.7,206.7 446.7,206.7 446.7,206.7 446.7,206.7 446.7,206.7 446.7,206.7 446.7,206.7 446.7,206.7 446.7,206.7 447.5,206.7 447.5,206.7 447.5,206.7 447.5,206.7 447.5,206.7 447.5,206.7 447.5,206.7 447.6,206.7 447.6,206.7 447.6,206.7 448.3,206.7 448.4,206.7 448.4,206.7 448.4,206.7 448.4,206.7 448.4,206.7 448.4,206.7 448.4,206.7 448.4,206.7 448.4,206.7 449.2,206.7 449.2,206.7 449.2,206.7 449.2,206.7 449.2,206.7 449.2,206.7 449.2,206.7 449.2,206.7 449.2,206.7 449.2,206.7 450.0,206.7 450.0,206.7 450.0,206.7 450.0,206.7 450.0,206.7 450.0,206.7 450.0,206.7 450.0,206.7 450.0,206.7 450.0,206.7 450.8,206.7 450.8,206.7 450.8,206.7 450.8,206.7 450.8,206.7 450.8,206.7 450.9,206.7 450.9,206.7 450.9,206.7 450.9,206.7 451.7,206.7 451.7,206.7 451.7,206.7 451.7,206.7 451.7,206.7 451.7,206.7 451.7,206.7 451.7,206.7 451.7,206.7 451.7,206.7 452.5,206.7 452.5,206.7 452.5,206.7 452.5,206.7 452.5,206.7 452.5,206.7 452.5,206.7 452.5,206.7 452.5,206.7 452.5,206.7 453.3,206.7 453.3,206.7 453.3,206.7 453.3,206.7 453.3,206.7 453.3,206.7 453.3,206.7 453.3,206.7 453.3,206.7 453.3,206.7 454.1,206.7 454.1,206.7 454.1,206.7 454.1,206.7 454.1,206.7 454.1,206.7 454.2,206.7 454.2,206.7 454.2,206.7 454.2,206.7 455.0,206.7 455.0,206.7 455.0,206.7 455.0,206.7 455.0,206.7 455.0,206.7 455.0,206.7 455.0,206.7 455.0,206.7 455.0,206.7 455.8,206.7 455.8,206.7 455.8,206.7 455.8,206.7 455.8,206.7 455.8,206.7 455.8,206.7 455.8,206.7 455.8,206.7 455.8,206.7 456.6,206.7 456.6,206.7 456.6,206.7 456.6,206.7 456.6,206.7 456.6,206.7 456.6,206.7 456.6,206.7 456.6,206.7 456.6,206.7 457.4,206.7 457.4,206.7 457.4,206.7 457.4,206.7 457.4,206.7 457.5,206.7 457.5,206.7 457.5,206.7 457.5,206.7 457.5,206.7 458.3,206.7 458.3,206.7 458.3,206.7 458.3,206.7 458.3,206.7 458.3,206.7 458.3,206.7 458.3,206.7 458.3,206.7 458.3,206.7 459.1,206.7 459.1,206.7 459.1,206.7 459.1,206.7 459.1,206.7 459.1,206.7 459.1,206.7 459.1,206.7 459.1,206.7 459.1,206.7 459.9,206.7 459.9,206.7 459.9,206.7 459.9,206.7 459.9,206.7 459.9,206.7 459.9,206.7 459.9,206.7 459.9,206.7 459.9,206.7 460.7,206.7 460.7,206.7 460.7,206.7 460.7,206.7 460.7,206.7 460.8,206.7 460.8,206.7 460.8,206.7 460.8,206.7 460.8,206.7 461.6,206.7 461.6,206.7 461.6,206.7 461.6,206.7 461.6,206.7 461.6,206.7 461.6,206.7 461.6,206.7 461.6,206.7 461.6,206.7 462.4,206.7 462.4,206.7 462.4,206.7 462.4,206.7 462.4,206.7 462.4,206.7 462.4,206.7 462.4,206.7 462.4,206.7 462.4,206.7 463.2,206.7 463.2,206.7 463.2,206.7 463.2,206.7 463.2,206.7 463.2,206.7 463.2,206.7 463.2,206.7 463.2,206.7 463.2,206.7 464.0,206.7 464.0,206.7 464.0,206.7 464.0,206.7 464.0,206.7 464.1,206.7 464.1,206.7 464.1,206.7 464.1,206.7 464.1,206.7 464.9,206.7 464.9,206.7 464.9,206.7 464.9,206.7 464.9,206.7 464.9,206.7 464.9,206.7 464.9,206.7 464.9,206.7 464.9,206.7 465.7,206.7 465.7,206.7 465.7,206.7 465.7,206.7 465.7,206.7 465.7,206.7 465.7,206.7 465.7,206.7 465.7,206.7 465.7,206.7 466.5,206.7 466.5,206.7 466.5,206.7 466.5,206.7 466.5,206.7 466.5,206.7 466.5,206.7 466.5,206.7 466.5,206.7 466.5,206.7 467.3,206.7 467.3,206.7 467.3,206.7 467.3,206.7 467.4,206.7 467.4,206.7 467.4,206.7 467.4,206.7 467.4,206.7 467.4,206.7 468.2,206.7 468.2,206.7 468.2,206.7 468.2,206.7 468.2,206.7 468.2,206.7 468.2,206.7 468.2,206.7 468.2,206.7 468.2,206.7 469.0,206.7 469.0,206.7 469.0,206.7 469.0,206.7 469.0,206.7 469.0,206.7 469.0,206.7 469.0,206.7 469.0,206.7 469.0,206.7 469.8,206.7 469.8,206.7 469.8,206.7 469.8,206.7 469.8,206.7 469.8,206.7 469.8,206.7 469.8,206.7 469.8,206.7 469.8,206.7 470.6,206.7 470.6,206.7 470.6,206.7 470.6,206.7 470.7,206.7 470.7,206.7 470.7,206.7 470.7,206.7 470.7,206.7 470.7,206.7 471.5,206.7 471.5,206.7 471.5,206.7 471.5,206.7 471.5,206.7 471.5,206.7 471.5,206.7 471.5,206.7 471.5,206.7 471.5,206.7 472.3,206.7 472.3,206.7 472.3,206.7 472.3,206.7 472.3,206.7 472.3,206.7 472.3,206.7 472.3,206.7 472.3,206.7 472.3,206.7 473.1,206.7 473.1,206.7 473.1,206.7 473.1,206.7 473.1,206.7 473.1,206.7 473.1,206.7 473.1,206.7 473.1,206.7 473.2,206.7 473.9,206.7 473.9,206.7 473.9,206.7 474.0,206.7 474.0,206.7 474.0,206.7 474.0,206.7 474.0,206.7 474.0,206.7 474.0,206.7 474.8,206.7 474.8,206.7 474.8,206.7 474.8,206.7 474.8,206.7 474.8,206.7 474.8,206.7 474.8,206.7 474.8,206.7 474.8,206.7 475.6,206.7 475.6,206.7 475.6,206.7 475.6,206.7 475.6,206.7 475.6,206.7 475.6,206.7 475.6,206.7 475.6,206.7 475.6,206.7 476.4,206.7 476.4,206.7 476.4,206.7 476.4,206.7 476.4,206.7 476.4,206.7 476.4,206.7 476.4,206.7 476.4,206.7 476.5,206.7 477.2,206.7 477.2,206.7 477.2,206.7 477.3,206.7 477.3,206.7 477.3,206.7 477.3,206.7 477.3,206.7 477.3,206.7 477.3,206.7 478.1,206.7 478.1,206.7 478.1,206.7 478.1,206.7 478.1,206.7 478.1,206.7 478.1,206.7 478.1,206.7 478.1,206.7 478.1,206.7 478.9,206.7 478.9,206.7 478.9,206.7 478.9,206.7 478.9,206.7 478.9,206.7 478.9,206.7 478.9,206.7 478.9,206.7 478.9,206.7 479.7,206.7 479.7,206.7 479.7,206.7 479.7,206.7 479.7,206.7 479.7,206.7 479.7,206.7 479.7,206.7 479.7,206.7 479.8,206.7 480.5,206.7 480.5,206.7 480.6,206.7 480.6,206.7 480.6,206.7 480.6,206.7 480.6,206.7 480.6,206.7 480.6,206.7 480.6,206.7 481.4,206.7 481.4,206.7 481.4,206.7 481.4,206.7 481.4,206.7 481.4,206.7 481.4,206.7 481.4,206.7 481.4,206.7 481.4,206.7 482.2,206.7 482.2,206.7 482.2,206.7 482.2,206.7 482.2,206.7 482.2,206.7 482.2,206.7 482.2,206.7 482.2,206.7 482.2,206.7 483.0,206.7 483.0,206.7 483.0,206.7 483.0,206.7 483.0,206.7 483.0,206.7 483.0,206.7 483.0,206.7 483.1,206.7 483.1,206.7 483.8,206.7 483.8,206.7 483.9,206.7 483.9,206.7 483.9,206.7 483.9,206.7 483.9,206.7 483.9,206.7 483.9,206.7 483.9,206.7 484.7,206.7 484.7,206.7 484.7,206.7 484.7,206.7 484.7,206.7 484.7,206.7 484.7,206.7 484.7,206.7 484.7,206.7 484.7,206.7 485.5,206.7 485.5,206.7 485.5,206.7 485.5,206.7 485.5,206.7 485.5,206.7 485.5,206.7 485.5,206.7 485.5,206.7 485.5,206.7 486.3,206.7 486.3,206.7 486.3,206.7 486.3,206.7 486.3,206.7 486.3,206.7 486.3,206.7 486.3,206.7 486.4,206.7 486.4,206.7 487.1,206.7 487.2,206.7 487.2,206.7 487.2,206.7 487.2,206.7 487.2,206.7 487.2,206.7 487.2,206.7 487.2,206.7 487.2,206.7 488.0,206.7 488.0,206.7 488.0,206.7 488.0,206.7 488.0,206.7 488.0,206.7 488.0,206.7 488.0,206.7 488.0,206.7 488.0,206.7 488.8,206.7 488.8,206.7 488.8,206.7 488.8,206.7 488.8,206.7 488.8,206.7 488.8,206.7 488.8,206.7 488.8,206.7 488.8,206.7 489.6,206.7 489.6,206.7 489.6,206.7 489.6,206.7 489.6,206.7 489.6,206.7 489.6,206.7 489.7,206.7 489.7,206.7 489.7,206.7 490.4,206.7 490.5,206.7 490.5,206.7 490.5,206.7 490.5,206.7 490.5,206.7 490.5,206.7 490.5,206.7 490.5,206.7 490.5,206.7 491.3,206.7 491.3,206.7 491.3,206.7 491.3,206.7 491.3,206.7 491.3,206.7 491.3,206.7 491.3,206.7 491.3,206.7 491.3,206.7 492.1,206.7 492.1,206.7 492.1,206.7 492.1,206.7 492.1,206.7 492.1,206.7 492.1,206.7 492.1,206.7 492.1,206.7 492.1,206.7 492.9,206.7 492.9,206.7 492.9,206.7 492.9,206.7 492.9,206.7 492.9,206.7 492.9,206.7 493.0,206.7 493.0,206.7 493.0,206.7 493.7,206.7 493.8,206.7 493.8,206.7 493.8,206.7 493.8,206.7 493.8,206.7 493.8,206.7 493.8,206.7 493.8,206.7 493.8,206.7 494.6,206.7 494.6,206.7 494.6,206.7 494.6,206.7 494.6,206.7 494.6,206.7 494.6,206.7 494.6,206.7 494.6,206.7 494.6,206.7 495.4,206.7 495.4,206.7 495.4,206.7 495.4,206.7 495.4,206.7 495.4,206.7 495.4,206.7 495.4,206.7 495.4,206.7 495.4,206.7 496.2,206.7 496.2,206.7 496.2,206.7 496.2,206.7 496.2,206.7 496.2,206.7 496.3,206.7 496.3,206.7 496.3,206.7 496.3,206.7 497.1,206.7 497.1,206.7 497.1,206.7 497.1,206.7 497.1,206.7 497.1,206.7 497.1,206.7 497.1,206.7 497.1,206.7 497.1,206.7 497.9,206.7 497.9,206.7 497.9,206.7 497.9,206.7 497.9,206.7 497.9,206.7 497.9,206.7 497.9,206.7 497.9,206.7 497.9,206.7 498.7,206.7 498.7,206.7 498.7,206.7 498.7,206.7 498.7,206.7 498.7,206.7 498.7,206.7 498.7,206.7 498.7,206.7 498.7,206.7 499.5,206.7 499.5,206.7 499.5,206.7 499.5,206.7 499.5,206.7 499.5,206.7 499.6,206.7 499.6,206.7 499.6,206.7 499.6,206.7 500.4,206.7 500.4,206.7 500.4,206.7 500.4,206.7 500.4,206.7 500.4,206.7 500.4,206.7 500.4,206.7 500.4,206.7 500.4,206.7 501.2,206.7 501.2,206.7 501.2,206.7 501.2,206.7 501.2,206.7 501.2,206.7 501.2,206.7 501.2,206.7 501.2,206.7 501.2,206.7 502.0,206.7" fill="none" stroke="#0E7E8C" stroke-width="2"/>
<line x1="378.2" y1="188" x2="378.2" y2="352" stroke="#C0392B" stroke-width="1" stroke-dasharray="3 3"/><text x="381.2" y="200" font-size="8.5" fill="#C0392B">load ↓</text>
<text x="48.0" y="372" font-size="8.5" fill="#8AA0AE" text-anchor="middle">0s</text>
<text x="171.8" y="372" font-size="8.5" fill="#8AA0AE" text-anchor="middle">3s</text>
<text x="295.6" y="372" font-size="8.5" fill="#8AA0AE" text-anchor="middle">6s</text>
<text x="419.5" y="372" font-size="8.5" fill="#8AA0AE" text-anchor="middle">9s</text>
<text x="275.0" y="384" font-size="9" fill="#586876" text-anchor="middle">time — rises, holds dead on target, dips at load, recovers</text>
<rect x="530" y="180" width="200" height="180" rx="12" fill="#EEF4F7" stroke="#1B3A55" stroke-width="1.3"/>
<text x="630.0" y="204" font-size="13" font-weight="800" fill="#0C2235" text-anchor="middle">±1 mm — MET</text>
<circle cx="552" cy="228" r="10" fill="#0B6A3B"/><text x="552" y="232" font-size="12" font-weight="800" fill="#fff" text-anchor="middle">✓</text>
<text x="570" y="226" font-size="11" font-weight="700" fill="#0C2235">reaches 500 mm</text>
<text x="570" y="239" font-size="9" fill="#586876">in ~6.1 s</text>
<circle cx="552" cy="260" r="10" fill="#0B6A3B"/><text x="552" y="264" font-size="12" font-weight="800" fill="#fff" text-anchor="middle">✓</text>
<text x="570" y="258" font-size="11" font-weight="700" fill="#0C2235">holds ±1 mm</text>
<text x="570" y="271" font-size="9" fill="#586876">0.01 mm actual</text>
<circle cx="552" cy="292" r="10" fill="#0B6A3B"/><text x="552" y="296" font-size="12" font-weight="800" fill="#fff" text-anchor="middle">✓</text>
<text x="570" y="290" font-size="11" font-weight="700" fill="#0C2235">rejects load</text>
<text x="570" y="303" font-size="9" fill="#586876">→ 0 mm</text>
<circle cx="552" cy="324" r="10" fill="#0B6A3B"/><text x="552" y="328" font-size="12" font-weight="800" fill="#fff" text-anchor="middle">✓</text>
<text x="570" y="322" font-size="11" font-weight="700" fill="#0C2235">stable</text>
<text x="570" y="335" font-size="9" fill="#586876">2.7× margin</text>
<text x="40" y="402" font-size="10.5" fill="#586876">open-loop (M09): ~15 mm off, drifts</text>
<text x="330" y="402" font-size="10.5" font-weight="700" fill="#0E7E8C">→ closed-loop: dead on target, held</text>
</svg>