<svg viewBox="0 0 760 460" xmlns="http://www.w3.org/2000/svg" font-family="'IBM Plex Sans',system-ui,sans-serif" role="img" aria-label="The complete monitored platform. Top: the controlled machine holding plus or minus 1 mm and a live model with observer on the same commands, feeding a residual monitor, a diagnosis block, and an estimator tracking the leak rate. Middle: a timeline of a developing leak - position stays flat on target inside the band while the leak rate rises; detection fires early at about 2.4 mm/s, and the hold would fail far later at about 50 mm/s, the gap being the lead time for planned maintenance. Footer: the curriculum layers from fluid to monitor, all built.">
<defs><marker id="a" viewBox="0 0 10 10" refX="8" refY="5" markerWidth="7" markerHeight="7" orient="auto"><path d="M0,1 L9,5 L0,9 z" fill="#1B3A55"/></marker></defs>
<rect width="760" height="460" rx="16" fill="#F7F9FB"/>
<text x="30" y="32" font-size="20" font-weight="700" fill="#0C2235">The monitored platform</text>
<text x="30" y="52" font-size="12.5" fill="#586876">Built, modeled, controlled — and now watching itself against its own design.</text>
<rect x="30" y="72" width="150" height="40" rx="8" fill="#EEF4F7" stroke="#1B3A55" stroke-width="1.6"/><text x="105.0" y="95.5" font-size="10" font-weight="700" fill="#0C2235" text-anchor="middle">controlled machine</text>
<text x="105" y="124" font-size="8" fill="#0B6A3B" text-anchor="middle">holds ±1 mm (M10)</text>
<rect x="200" y="72" width="140" height="40" rx="8" fill="#EAF6F5" stroke="#0E7E8C" stroke-width="1.6"/><text x="270.0" y="95.5" font-size="10" font-weight="700" fill="#0C2235" text-anchor="middle">live model + observer</text>
<text x="270" y="124" font-size="8" fill="#0E7E8C" text-anchor="middle">same commands (L01/L04)</text>
<line x1="180" y1="92" x2="198" y2="92" stroke="#1B3A55" stroke-width="1.4" marker-end="url(#a)"/>
<rect x="370" y="72" width="90" height="40" rx="8" fill="#FCF3E2" stroke="#DD841A" stroke-width="1.6"/><text x="415.0" y="95.5" font-size="10" font-weight="700" fill="#0C2235" text-anchor="middle">residual</text>
<text x="415" y="124" font-size="8" fill="#DD841A" text-anchor="middle">L02</text>
<rect x="478" y="72" width="110" height="40" rx="8" fill="#fff" stroke="#6B4FA0" stroke-width="1.6"/><text x="533.0" y="95.5" font-size="10" font-weight="700" fill="#0C2235" text-anchor="middle">diagnosis</text>
<text x="533" y="124" font-size="8" fill="#6B4FA0" text-anchor="middle">signature (L03)</text>
<rect x="606" y="72" width="124" height="40" rx="8" fill="#E8F3EC" stroke="#0B6A3B" stroke-width="1.6"/><text x="668.0" y="95.5" font-size="10" font-weight="700" fill="#0C2235" text-anchor="middle">estimator</text>
<text x="668" y="124" font-size="8" fill="#0B6A3B" text-anchor="middle">leak rate (L04)</text>
<line x1="340" y1="92" x2="368" y2="92" stroke="#1B3A55" stroke-width="1.4" marker-end="url(#a)"/>
<line x1="460" y1="92" x2="476" y2="92" stroke="#1B3A55" stroke-width="1.4" marker-end="url(#a)"/>
<line x1="588" y1="92" x2="604" y2="92" stroke="#1B3A55" stroke-width="1.4" marker-end="url(#a)"/>
<text x="30" y="156" font-size="10.5" font-weight="700" fill="#0E7E8C">DEVELOPING LEAK: the controller masks it, the monitor catches it early</text>
<rect x="30" y="160" width="700" height="190" rx="8" fill="#fff" stroke="#E2E8F0"/>
<rect x="40" y="206" width="680" height="18" fill="#E8F3EC"/>
<line x1="40" y1="215" x2="720" y2="215" stroke="#0B6A3B" stroke-width="0.8" stroke-dasharray="3 2"/>
<text x="44" y="203" font-size="8.5" fill="#0B6A3B">position: holds ±1 mm on target (controller masking)</text>
<polyline points="41.1,215.0 42.3,215.0 43.4,215.0 44.5,215.1 45.7,215.1 46.8,215.1 47.9,215.1 49.1,215.1 50.2,215.2 51.3,215.2 52.5,215.2 53.6,215.2 54.7,215.2 55.9,215.2 57.0,215.2 58.1,215.2 59.3,215.2 60.4,215.2 61.5,215.2 62.7,215.2 63.8,215.2 65.0,215.2 66.1,215.2 67.2,215.2 68.4,215.2 69.5,215.2 70.6,215.2 71.8,215.2 72.9,215.2 74.0,215.2 75.2,215.2 76.3,215.2 77.4,215.2 78.6,215.2 79.7,215.2 80.8,215.2 82.0,215.2 83.1,215.2 84.2,215.2 85.4,215.2 86.5,215.2 87.6,215.2 88.8,215.2 89.9,215.2 91.0,215.2 92.2,215.2 93.3,215.2 94.4,215.2 95.6,215.2 96.7,215.2 97.8,215.2 99.0,215.2 100.1,215.2 101.2,215.2 102.4,215.2 103.5,215.2 104.6,215.2 105.8,215.2 106.9,215.2 108.0,215.2 109.2,215.2 110.3,215.2 111.4,215.2 112.6,215.2 113.7,215.2 114.8,215.2 116.0,215.2 117.1,215.2 118.2,215.2 119.4,215.2 120.5,215.2 121.6,215.2 122.8,215.2 123.9,215.2 125.0,215.2 126.2,215.2 127.3,215.2 128.4,215.2 129.6,215.2 130.7,215.2 131.8,215.2 133.0,215.2 134.1,215.2 135.2,215.2 136.4,215.2 137.5,215.2 138.6,215.2 139.8,215.2 140.9,215.2 142.0,215.2 143.2,215.2 144.3,215.2 145.4,215.2 146.6,215.2 147.7,215.2 148.8,215.2 150.0,215.2 151.1,215.2 152.2,215.2 153.3,215.2 154.5,215.2 155.6,215.2 156.7,215.2 157.9,215.2 159.0,215.2 160.1,215.2 161.3,215.2 162.4,215.2 163.5,215.2 164.7,215.2 165.8,215.2 166.9,215.2 168.1,215.2 169.2,215.2 170.3,215.2 171.5,215.2 172.6,215.2 173.7,215.2 174.9,215.2 176.0,215.2 177.1,215.2 178.3,215.2 179.4,215.2 180.5,215.2 181.7,215.2 182.8,215.2 183.9,215.2 185.1,215.2 186.2,215.2 187.3,215.2 188.5,215.2 189.6,215.2 190.7,215.2 191.9,215.2 193.0,215.2 194.1,215.2 195.3,215.2 196.4,215.2 197.5,215.2 198.7,215.2 199.8,215.2 200.9,215.2 202.1,215.2 203.2,215.2 204.3,215.2 205.5,215.2 206.6,215.2 207.7,215.2 208.9,215.2 210.0,215.2 211.1,215.2 212.3,215.2 213.4,215.2 214.5,215.2 215.7,215.2 216.8,215.2 217.9,215.2 219.1,215.2 220.2,215.2 221.3,215.2 222.5,215.2 223.6,215.2 224.7,215.2 225.9,215.2 227.0,215.2 228.1,215.2 229.3,215.2 230.4,215.2 231.5,215.2 232.7,215.2 233.8,215.2 234.9,215.2 236.1,215.2 237.2,215.2 238.3,215.2 239.5,215.2 240.6,215.2 241.7,215.2 242.9,215.2 244.0,215.2 245.1,215.2 246.3,215.2 247.4,215.2 248.5,215.2 249.7,215.2 250.8,215.2 251.9,215.2 253.1,215.2 254.2,215.2 255.3,215.2 256.5,215.2 257.6,215.2 258.7,215.2 259.9,215.2 261.0,215.2 262.1,215.2 263.3,215.2 264.4,215.2 265.6,215.2 266.7,215.2 267.8,215.2 269.0,215.2 270.1,215.2 271.2,215.2 272.4,215.2 273.5,215.2 274.6,215.2 275.8,215.2 276.9,215.2 278.0,215.2 279.2,215.2 280.3,215.2 281.4,215.2 282.6,215.2 283.7,215.2 284.8,215.2 286.0,215.2 287.1,215.2 288.2,215.2 289.4,215.2 290.5,215.2 291.6,215.2 292.8,215.2 293.9,215.2 295.0,215.2 296.2,215.2 297.3,215.2 298.4,215.2 299.6,215.2 300.7,215.2 301.8,215.2 303.0,215.2 304.1,215.2 305.2,215.2 306.4,215.2 307.5,215.2 308.6,215.2 309.8,215.2 310.9,215.2 312.0,215.2 313.2,215.2 314.3,215.2 315.4,215.2 316.6,215.2 317.7,215.2 318.8,215.2 320.0,215.2 321.1,215.2 322.2,215.2 323.4,215.2 324.5,215.2 325.6,215.2 326.8,215.2 327.9,215.2 329.0,215.2 330.2,215.2 331.3,215.2 332.4,215.2 333.6,215.2 334.7,215.2 335.8,215.2 337.0,215.2 338.1,215.2 339.2,215.2 340.4,215.2 341.5,215.2 342.6,215.2 343.8,215.2 344.9,215.2 346.0,215.2 347.2,215.2 348.3,215.2 349.4,215.2 350.6,215.2 351.7,215.2 352.8,215.2 354.0,215.2 355.1,215.2 356.2,215.2 357.4,215.2 358.5,215.2 359.6,215.2 360.8,215.2 361.9,215.2 363.0,215.2 364.2,215.2 365.3,215.2 366.4,215.2 367.6,215.2 368.7,215.2 369.8,215.2 371.0,215.2 372.1,215.2 373.2,215.2 374.4,215.2 375.5,215.2 376.6,215.2 377.8,215.2 378.9,215.2 380.0,215.2 381.2,215.2 382.3,215.2 383.4,215.2 384.6,215.2 385.7,215.2 386.8,215.2 388.0,215.2 389.1,215.2 390.2,215.2 391.4,215.2 392.5,215.2 393.6,215.2 394.8,215.2 395.9,215.2 397.0,215.2 398.2,215.2 399.3,215.2 400.4,215.2 401.6,215.2 402.7,215.2 403.8,215.2 405.0,215.2 406.1,215.2 407.2,215.2 408.4,215.2 409.5,215.2 410.6,215.2 411.8,215.2 412.9,215.2 414.0,215.2 415.2,215.2 416.3,215.2 417.4,215.2 418.6,215.2 419.7,215.2 420.8,215.2 422.0,215.2 423.1,215.2 424.2,215.2 425.4,215.2 426.5,215.2 427.6,215.2 428.8,215.2 429.9,215.2 431.0,215.2 432.2,215.2 433.3,215.2 434.4,215.2 435.6,215.2 436.7,215.2 437.8,215.2 439.0,215.2 440.1,215.2 441.2,215.2 442.4,215.2 443.5,215.2 444.6,215.2 445.8,215.2 446.9,215.2 448.0,215.2 449.2,215.2 450.3,215.2 451.4,215.2 452.6,215.2 453.7,215.2 454.8,215.2 456.0,215.2 457.1,215.2 458.2,215.2 459.4,215.2 460.5,215.2 461.6,215.2 462.8,215.2 463.9,215.2 465.0,215.2 466.2,215.2 467.3,215.2 468.4,215.2 469.5,215.2 470.7,215.2 471.8,215.2 472.9,215.2 474.1,215.2 475.2,215.2 476.3,215.2 477.5,215.2 478.6,215.2 479.7,215.2 480.9,215.2 482.0,215.2 483.1,215.2 484.3,215.2 485.4,215.2 486.5,215.2 487.7,215.2 488.8,215.2 489.9,215.2 491.1,215.2 492.2,215.2 493.3,215.2 494.5,215.2 495.6,215.2 496.7,215.2 497.9,215.2 499.0,215.2 500.1,215.2 501.3,215.2 502.4,215.2 503.5,215.2 504.7,215.2 505.8,215.2 506.9,215.2 508.1,215.2 509.2,215.2 510.3,215.2 511.5,215.2 512.6,215.2 513.7,215.2 514.9,215.2 516.0,215.2 517.1,215.2 518.3,215.2 519.4,215.2 520.5,215.2 521.7,215.2 522.8,215.2 523.9,215.2 525.1,215.2 526.2,215.2 527.3,215.2 528.5,215.2 529.6,215.2 530.7,215.2 531.9,215.2 533.0,215.2 534.1,215.2 535.3,215.2 536.4,215.2 537.5,215.2 538.7,215.2 539.8,215.2 540.9,215.2 542.1,215.2 543.2,215.2 544.3,215.2 545.5,215.2 546.6,215.2 547.7,215.2 548.9,215.2 550.0,215.2 551.1,215.2 552.3,215.2 553.4,215.2 554.5,215.2 555.7,215.2 556.8,215.2 557.9,215.2 559.1,215.2 560.2,215.2 561.3,215.2 562.5,215.2 563.6,215.2 564.7,215.2 565.9,215.2 567.0,215.2 568.1,215.2 569.3,215.2 570.4,215.2 571.5,215.2 572.7,215.2 573.8,215.2 574.9,215.2 576.1,215.2 577.2,215.2 578.3,215.2 579.5,215.2 580.6,215.2 581.7,215.2 582.9,215.2 584.0,215.2 585.1,215.2 586.3,215.2 587.4,215.2 588.5,215.2 589.7,215.2 590.8,215.2 591.9,215.2 593.1,215.2 594.2,215.2 595.3,215.2 596.5,215.2 597.6,215.2 598.7,215.2 599.9,215.2 601.0,215.2 602.1,215.2 603.3,215.2 604.4,215.2 605.5,215.2 606.7,215.2 607.8,215.2 608.9,215.2 610.1,215.2 611.2,215.2 612.3,215.2 613.5,215.2 614.6,215.2 615.7,215.2 616.9,215.2 618.0,215.2 619.1,215.2 620.3,215.2 621.4,215.2 622.5,215.2 623.7,215.2 624.8,215.2 625.9,215.2 627.1,215.2 628.2,215.2 629.3,215.2 630.5,215.2 631.6,215.2 632.7,215.2 633.9,215.2 635.0,215.2 636.1,215.2 637.3,215.2 638.4,215.2 639.5,215.2 640.7,215.2 641.8,215.2 642.9,215.2 644.1,215.2 645.2,215.2 646.3,215.2 647.5,215.2 648.6,215.2 649.7,215.2 650.9,215.2 652.0,215.2 653.1,215.2 654.3,215.2 655.4,215.2 656.5,215.2 657.7,215.2 658.8,215.2 659.9,215.2 661.1,215.2 662.2,215.2 663.3,215.2 664.5,215.2 665.6,215.2 666.7,215.2 667.9,215.2 669.0,215.2 670.1,215.2 671.3,215.2 672.4,215.2 673.5,215.2 674.7,215.2 675.8,215.2 676.9,215.2 678.1,215.2 679.2,215.2 680.3,215.2 681.5,215.2 682.6,215.2 683.7,215.2 684.9,215.2 686.0,215.2 687.1,215.2 688.3,215.2 689.4,215.2 690.5,215.2 691.7,215.2 692.8,215.2 693.9,215.2 695.1,215.2 696.2,215.2 697.3,215.2 698.5,215.2 699.6,215.2 700.7,215.2 701.9,215.2 703.0,215.2 704.1,215.2 705.3,215.2 706.4,215.2 707.5,215.2 708.7,215.2 709.8,215.2 710.9,215.2 712.1,215.2 713.2,215.2 714.3,215.2 715.5,215.2 716.6,215.2 717.7,215.2 718.9,215.2 720.0,215.2" fill="none" stroke="#1B3A55" stroke-width="1.6"/>
<text x="44" y="240" font-size="8.5" fill="#C0392B">leak rate (mm/s) rising →</text>
<polyline points="41.1,325.8 42.3,325.6 43.4,325.4 44.5,325.2 45.7,325.1 46.8,324.9 47.9,324.7 49.1,324.5 50.2,324.3 51.3,324.1 52.5,323.9 53.6,323.7 54.7,323.5 55.9,323.3 57.0,323.2 58.1,323.0 59.3,322.8 60.4,322.6 61.5,322.4 62.7,322.2 63.8,322.0 65.0,321.8 66.1,321.6 67.2,321.4 68.4,321.3 69.5,321.1 70.6,320.9 71.8,320.7 72.9,320.5 74.0,320.3 75.2,320.1 76.3,319.9 77.4,319.7 78.6,319.5 79.7,319.4 80.8,319.2 82.0,319.0 83.1,318.8 84.2,318.6 85.4,318.4 86.5,318.2 87.6,318.0 88.8,317.8 89.9,317.6 91.0,317.5 92.2,317.3 93.3,317.1 94.4,316.9 95.6,316.7 96.7,316.5 97.8,316.3 99.0,316.1 100.1,315.9 101.2,315.7 102.4,315.6 103.5,315.4 104.6,315.2 105.8,315.0 106.9,314.8 108.0,314.6 109.2,314.4 110.3,314.2 111.4,314.0 112.6,313.8 113.7,313.7 114.8,313.5 116.0,313.3 117.1,313.1 118.2,312.9 119.4,312.7 120.5,312.5 121.6,312.3 122.8,312.1 123.9,311.9 125.0,311.8 126.2,311.6 127.3,311.4 128.4,311.2 129.6,311.0 130.7,310.8 131.8,310.6 133.0,310.4 134.1,310.2 135.2,310.0 136.4,309.9 137.5,309.7 138.6,309.5 139.8,309.3 140.9,309.1 142.0,308.9 143.2,308.7 144.3,308.5 145.4,308.3 146.6,308.1 147.7,308.0 148.8,307.8 150.0,307.6 151.1,307.4 152.2,307.2 153.3,307.0 154.5,306.8 155.6,306.6 156.7,306.4 157.9,306.2 159.0,306.1 160.1,305.9 161.3,305.7 162.4,305.5 163.5,305.3 164.7,305.1 165.8,304.9 166.9,304.7 168.1,304.5 169.2,304.3 170.3,304.2 171.5,304.0 172.6,303.8 173.7,303.6 174.9,303.4 176.0,303.2 177.1,303.0 178.3,302.8 179.4,302.6 180.5,302.4 181.7,302.3 182.8,302.1 183.9,301.9 185.1,301.7 186.2,301.5 187.3,301.3 188.5,301.1 189.6,300.9 190.7,300.7 191.9,300.5 193.0,300.4 194.1,300.2 195.3,300.0 196.4,299.8 197.5,299.6 198.7,299.4 199.8,299.2 200.9,299.0 202.1,298.8 203.2,298.6 204.3,298.5 205.5,298.3 206.6,298.1 207.7,297.9 208.9,297.7 210.0,297.5 211.1,297.3 212.3,297.1 213.4,296.9 214.5,296.7 215.7,296.6 216.8,296.4 217.9,296.2 219.1,296.0 220.2,295.8 221.3,295.6 222.5,295.4 223.6,295.2 224.7,295.0 225.9,294.8 227.0,294.7 228.1,294.5 229.3,294.3 230.4,294.1 231.5,293.9 232.7,293.7 233.8,293.5 234.9,293.3 236.1,293.1 237.2,292.9 238.3,292.8 239.5,292.6 240.6,292.4 241.7,292.2 242.9,292.0 244.0,291.8 245.1,291.6 246.3,291.4 247.4,291.2 248.5,291.0 249.7,290.9 250.8,290.7 251.9,290.5 253.1,290.3 254.2,290.1 255.3,289.9 256.5,289.7 257.6,289.5 258.7,289.3 259.9,289.1 261.0,289.0 262.1,288.8 263.3,288.6 264.4,288.4 265.6,288.2 266.7,288.0 267.8,287.8 269.0,287.6 270.1,287.4 271.2,287.2 272.4,287.1 273.5,286.9 274.6,286.7 275.8,286.5 276.9,286.3 278.0,286.1 279.2,285.9 280.3,285.7 281.4,285.5 282.6,285.3 283.7,285.2 284.8,285.0 286.0,284.8 287.1,284.6 288.2,284.4 289.4,284.2 290.5,284.0 291.6,283.8 292.8,283.6 293.9,283.4 295.0,283.3 296.2,283.1 297.3,282.9 298.4,282.7 299.6,282.5 300.7,282.3 301.8,282.1 303.0,281.9 304.1,281.7 305.2,281.5 306.4,281.4 307.5,281.2 308.6,281.0 309.8,280.8 310.9,280.6 312.0,280.4 313.2,280.2 314.3,280.0 315.4,279.8 316.6,279.6 317.7,279.5 318.8,279.3 320.0,279.1 321.1,278.9 322.2,278.7 323.4,278.5 324.5,278.3 325.6,278.1 326.8,277.9 327.9,277.7 329.0,277.6 330.2,277.4 331.3,277.2 332.4,277.0 333.6,276.8 334.7,276.6 335.8,276.4 337.0,276.2 338.1,276.0 339.2,275.8 340.4,275.7 341.5,275.5 342.6,275.3 343.8,275.1 344.9,274.9 346.0,274.7 347.2,274.5 348.3,274.3 349.4,274.1 350.6,273.9 351.7,273.8 352.8,273.6 354.0,273.4 355.1,273.2 356.2,273.0 357.4,272.8 358.5,272.6 359.6,272.4 360.8,272.2 361.9,272.0 363.0,271.9 364.2,271.7 365.3,271.5 366.4,271.3 367.6,271.1 368.7,270.9 369.8,270.7 371.0,270.5 372.1,270.3 373.2,270.1 374.4,270.0 375.5,269.8 376.6,269.6 377.8,269.4 378.9,269.2 380.0,269.0 381.2,268.8 382.3,268.6 383.4,268.4 384.6,268.2 385.7,268.1 386.8,267.9 388.0,267.7 389.1,267.5 390.2,267.3 391.4,267.1 392.5,266.9 393.6,266.7 394.8,266.5 395.9,266.3 397.0,266.2 398.2,266.0 399.3,265.8 400.4,265.6 401.6,265.4 402.7,265.2 403.8,265.0 405.0,264.8 406.1,264.6 407.2,264.4 408.4,264.3 409.5,264.1 410.6,263.9 411.8,263.7 412.9,263.5 414.0,263.3 415.2,263.1 416.3,262.9 417.4,262.7 418.6,262.5 419.7,262.4 420.8,262.2 422.0,262.0 423.1,261.8 424.2,261.6 425.4,261.4 426.5,261.2 427.6,261.0 428.8,260.8 429.9,260.6 431.0,260.5 432.2,260.3 433.3,260.1 434.4,259.9 435.6,259.7 436.7,259.5 437.8,259.3 439.0,259.1 440.1,258.9 441.2,258.7 442.4,258.6 443.5,258.4 444.6,258.2 445.8,258.0 446.9,257.8 448.0,257.6 449.2,257.4 450.3,257.2 451.4,257.0 452.6,256.8 453.7,256.7 454.8,256.5 456.0,256.3 457.1,256.1 458.2,255.9 459.4,255.7 460.5,255.5 461.6,255.3 462.8,255.1 463.9,254.9 465.0,254.8 466.2,254.6 467.3,254.4 468.4,254.2 469.5,254.0 470.7,253.8 471.8,253.6 472.9,253.4 474.1,253.2 475.2,253.0 476.3,252.9 477.5,252.7 478.6,252.5 479.7,252.3 480.9,252.1 482.0,251.9 483.1,251.7 484.3,251.5 485.4,251.3 486.5,251.1 487.7,251.0 488.8,250.8 489.9,250.6 491.1,250.4 492.2,250.2 493.3,250.0 494.5,249.8 495.6,249.6 496.7,249.4 497.9,249.2 499.0,249.1 500.1,248.9 501.3,248.7 502.4,248.5 503.5,248.3 504.7,248.1 505.8,247.9 506.9,247.7 508.1,247.5 509.2,247.3 510.3,247.2 511.5,247.0 512.6,246.8 513.7,246.6 514.9,246.4 516.0,246.2 517.1,246.0 518.3,245.8 519.4,245.6 520.5,245.4 521.7,245.3 522.8,245.1 523.9,244.9 525.1,244.7 526.2,244.5 527.3,244.3 528.5,244.1 529.6,243.9 530.7,243.7 531.9,243.5 533.0,243.4 534.1,243.2 535.3,243.0 536.4,242.8 537.5,242.6 538.7,242.4 539.8,242.2 540.9,242.0 542.1,241.8 543.2,241.6 544.3,241.5 545.5,241.3 546.6,241.1 547.7,240.9 548.9,240.7 550.0,240.5 551.1,240.3 552.3,240.1 553.4,239.9 554.5,239.7 555.7,239.6 556.8,239.4 557.9,239.2 559.1,239.0 560.2,238.8 561.3,238.6 562.5,238.4 563.6,238.2 564.7,238.0 565.9,237.8 567.0,237.7 568.1,237.5 569.3,237.3 570.4,237.1 571.5,236.9 572.7,236.7 573.8,236.5 574.9,236.3 576.1,236.1 577.2,235.9 578.3,235.8 579.5,235.6 580.6,235.4 581.7,235.2 582.9,235.0 584.0,234.8 585.1,234.6 586.3,234.4 587.4,234.2 588.5,234.0 589.7,233.9 590.8,233.7 591.9,233.5 593.1,233.3 594.2,233.1 595.3,232.9 596.5,232.7 597.6,232.5 598.7,232.3 599.9,232.1 601.0,232.0 602.1,231.8 603.3,231.6 604.4,231.4 605.5,231.2 606.7,231.0 607.8,230.8 608.9,230.6 610.1,230.4 611.2,230.2 612.3,230.1 613.5,229.9 614.6,229.7 615.7,229.5 616.9,229.3 618.0,229.1 619.1,228.9 620.3,228.7 621.4,228.5 622.5,228.3 623.7,228.2 624.8,228.0 625.9,227.8 627.1,227.6 628.2,227.4 629.3,227.2 630.5,227.0 631.6,226.8 632.7,226.6 633.9,226.4 635.0,226.3 636.1,226.1 637.3,225.9 638.4,225.7 639.5,225.5 640.7,225.3 641.8,225.1 642.9,224.9 644.1,224.7 645.2,224.5 646.3,224.4 647.5,224.2 648.6,224.0 649.7,223.8 650.9,223.6 652.0,223.4 653.1,223.2 654.3,223.0 655.4,222.8 656.5,222.6 657.7,222.5 658.8,222.3 659.9,222.1 661.1,221.9 662.2,221.7 663.3,221.5 664.5,221.3 665.6,221.1 666.7,220.9 667.9,220.7 669.0,220.6 670.1,220.4 671.3,220.2 672.4,220.0 673.5,219.8 674.7,219.6 675.8,219.4 676.9,219.2 678.1,219.0 679.2,218.8 680.3,218.7 681.5,218.5 682.6,218.3 683.7,218.1 684.9,217.9 686.0,217.7 687.1,217.5 688.3,217.3 689.4,217.1 690.5,216.9 691.7,216.8 692.8,216.6 693.9,216.4 695.1,216.2 696.2,216.0 697.3,215.8 698.5,215.6 699.6,215.4 700.7,215.2 701.9,215.0 703.0,214.9 704.1,214.7 705.3,214.5 706.4,214.3 707.5,214.1 708.7,213.9 709.8,213.7 710.9,213.5 712.1,213.3 713.2,213.1 714.3,213.0 715.5,212.8 716.6,212.6 717.7,212.4 718.9,212.2 720.0,212.0" fill="none" stroke="#C0392B" stroke-width="1.8"/>
<line x1="67.3" y1="168" x2="67.3" y2="342" stroke="#DD841A" stroke-width="1.4" stroke-dasharray="3 2"/>
<circle cx="67.3" cy="321.4" r="4" fill="#DD841A"/>
<text x="71.3" y="184" font-size="9" font-weight="700" fill="#DD841A">DETECTED</text><text x="71.3" y="195" font-size="8" fill="#DD841A">leak ~2.4 mm/s</text>
<line x1="606.7" y1="168" x2="606.7" y2="342" stroke="#C0392B" stroke-width="1.6"/>
<text x="602.7" y="184" font-size="9" font-weight="700" fill="#C0392B" text-anchor="end">hold FAILS</text><text x="602.7" y="195" font-size="8" fill="#C0392B" text-anchor="end">leak ~50 mm/s</text>
<line x1="67.3" y1="344" x2="606.7" y2="344" stroke="#0E7E8C" stroke-width="1.4" marker-start="url(#a)" marker-end="url(#a)"/>
<text x="337.0" y="340" font-size="9" font-weight="700" fill="#0E7E8C" text-anchor="middle">LEAD TIME (~20×) — planned maintenance</text>
<rect x="30.0" y="364" width="72.4" height="30" rx="6" fill="#EEF2F5" stroke="#1B3A55" stroke-width="1"/>
<text x="66.2" y="383" font-size="8.5" font-weight="600" fill="#1B3A55" text-anchor="middle">fluid</text>
<text x="102.9" y="384" font-size="9" fill="#8AA0AE" text-anchor="middle">›</text>
<rect x="108.4" y="364" width="72.4" height="30" rx="6" fill="#EEF2F5" stroke="#1B3A55" stroke-width="1"/>
<text x="144.7" y="383" font-size="8.5" font-weight="600" fill="#1B3A55" text-anchor="middle">cylinder</text>
<text x="181.4" y="384" font-size="9" fill="#8AA0AE" text-anchor="middle">›</text>
<rect x="186.9" y="364" width="72.4" height="30" rx="6" fill="#EEF2F5" stroke="#1B3A55" stroke-width="1"/>
<text x="223.1" y="383" font-size="8.5" font-weight="600" fill="#1B3A55" text-anchor="middle">power unit</text>
<text x="259.8" y="384" font-size="9" fill="#8AA0AE" text-anchor="middle">›</text>
<rect x="265.3" y="364" width="72.4" height="30" rx="6" fill="#EEF2F5" stroke="#1B3A55" stroke-width="1"/>
<text x="301.6" y="383" font-size="8.5" font-weight="600" fill="#1B3A55" text-anchor="middle">valves</text>
<text x="338.3" y="384" font-size="9" fill="#8AA0AE" text-anchor="middle">›</text>
<rect x="343.8" y="364" width="72.4" height="30" rx="6" fill="#EEF2F5" stroke="#1B3A55" stroke-width="1"/>
<text x="380.0" y="383" font-size="8.5" font-weight="600" fill="#1B3A55" text-anchor="middle">circuit</text>
<text x="416.7" y="384" font-size="9" fill="#8AA0AE" text-anchor="middle">›</text>
<rect x="422.2" y="364" width="72.4" height="30" rx="6" fill="#EEF2F5" stroke="#1B3A55" stroke-width="1"/>
<text x="458.4" y="383" font-size="8.5" font-weight="600" fill="#1B3A55" text-anchor="middle">command &amp; sense</text>
<text x="495.2" y="384" font-size="9" fill="#8AA0AE" text-anchor="middle">›</text>
<rect x="500.7" y="364" width="72.4" height="30" rx="6" fill="#EEF2F5" stroke="#1B3A55" stroke-width="1"/>
<text x="536.9" y="383" font-size="8.5" font-weight="600" fill="#1B3A55" text-anchor="middle">model</text>
<text x="573.6" y="384" font-size="9" fill="#8AA0AE" text-anchor="middle">›</text>
<rect x="579.1" y="364" width="72.4" height="30" rx="6" fill="#EEF2F5" stroke="#1B3A55" stroke-width="1"/>
<text x="615.3" y="383" font-size="8.5" font-weight="600" fill="#1B3A55" text-anchor="middle">control</text>
<text x="652.1" y="384" font-size="9" fill="#8AA0AE" text-anchor="middle">›</text>
<rect x="657.6" y="364" width="72.4" height="30" rx="6" fill="#E8F3EC" stroke="#0B6A3B" stroke-width="1.6"/>
<text x="693.8" y="383" font-size="8.5" font-weight="800" fill="#0B6A3B" text-anchor="middle">MONITOR</text>
<text x="380" y="412" font-size="12" font-weight="700" fill="#0B5A63" text-anchor="middle">A 2-tonne platform that lifts, holds ±1 mm, and knows whether it is behaving as designed — curriculum complete.</text>
</svg>